<svg width="457" height="684" viewBox="0 0 457 684" fill="none" xmlns="http://www.w3.org/2000/svg">
<path d="M6.84243 585.917C17.91 596.971 17.5531 594.776 30.7567 599C19.8382 599 30.187 606.687 38.7034 608.577C48.9054 610.842 44.8496 621.617 53.2081 626.037C61.1053 630.213 73.8149 635.846 83.2095 637.553C89.801 638.75 86.6807 657.395 86.6807 663.185C86.6807 693.555 121.349 675.069 138.005 667.147C156.369 658.413 160.339 633.916 177.181 624.303C183.406 620.75 186.361 609.743 191.561 604.243C202.157 593.037 210.406 583.347 222.679 574.153C228.359 569.898 225.034 549.72 225.034 543.568C225.034 535.57 225.25 527.54 225.034 519.546C224.917 515.235 221.807 502.205 219.579 498.743C215.451 492.33 207.378 489.584 203.959 481.779C201.249 475.593 198.982 470.694 197.14 464.072C194.878 455.937 197.113 443.13 208.298 449.336C227.901 460.214 245.668 466.053 269.168 466.053C272.434 466.053 281.706 466.862 282.929 462.586C283.765 459.663 283.863 453.895 280.822 452.68C277.05 451.173 273.967 446.103 269.168 444.259C265.078 442.688 260.048 442.715 256.275 441.04C252.237 439.247 248.067 440.463 247.225 435.839C245.842 428.241 241.871 420.136 239.539 412.684C236.09 401.661 238.423 387.365 238.423 375.907C238.423 352.971 273.259 353.495 282.557 336.778C287.722 327.493 296.978 321.176 307.6 321.176C319.112 321.176 327.949 322.904 335.369 313.375C341.815 305.098 344.866 294.776 349.502 285.514C353.072 278.384 360.296 266.501 361.156 258.767C361.728 253.622 366.962 253.515 367.726 250.842C368.811 247.051 368.139 245.323 370.082 241.927C374.644 233.953 373.55 221.815 376.776 212.952C380.941 201.512 383.64 190.598 396.364 185.71C408.349 181.106 417.683 172.093 426.365 163.421C434.435 155.361 439.215 143.372 445.953 133.95C454.79 121.594 456.321 113.102 444.713 101.508C436.681 93.4853 428.26 87.5285 419.175 82.1908C416.916 80.8636 412.32 69.8551 411.241 67.084C408.611 60.3308 405.467 54.8668 401.199 49.0053C390.549 34.3789 383.808 17.4063 368.346 6.90435C359.044 0.586185 346.166 6.18329 336.609 8.63792C328.874 10.6247 318.897 9.79842 312.063 13.591C306.304 16.7866 296.414 18.9706 289.872 20.2776C273.464 23.5553 259.018 26.9642 241.894 26.9642C222.59 26.9642 200.453 20.6005 181.396 25.2307C174.789 26.8357 150.355 31.3681 160.32 42.5664C166.885 49.9426 176.723 63.4514 186.974 64.7313C192.089 65.3698 201.105 67.7339 205.446 70.3035C210.664 73.3917 217.271 72.3898 221.563 75.9995C227.768 81.2191 227.197 79.1128 221.811 86.0295C219.14 89.459 217.679 94.3376 215.984 98.2883C213.328 104.479 205.577 112.499 201.603 118.348C196.375 126.044 190.568 128.658 184.867 135.065C176.411 144.566 156.508 140.637 145.196 140.637C130.049 140.637 116.18 151.274 107.26 162.926C97.1782 176.094 88.4974 185.795 80.978 200.817C79.3621 204.045 75.8468 205.371 74.2834 208.494C72.6752 211.707 73.6788 215.398 72.0519 218.648C68.919 224.906 67.9846 231.092 65.4814 237.593C58.2843 256.284 61.1551 291.875 41.0588 303.345C26.0504 311.911 34.3831 338.568 38.0835 349.656C41.3634 359.484 44.2821 364.527 44.2821 375.783C44.2821 388.333 26.4301 395.755 26.4301 406.988C26.4301 416.419 26.7928 425.923 26.4301 435.344C26.0919 444.125 17.5041 449.975 17.5041 459.366C17.5041 474.237 30.642 472.426 37.7116 480.664C45.3655 489.583 61.6027 478.651 69.8204 486.113C75.2764 491.067 73.7125 501.256 73.2917 508.402C73.0451 512.589 54.3163 510.63 50.9766 510.63C44.7362 510.63 30.1148 509.475 28.7856 517.441C27.074 527.698 33.637 538.834 28.6616 547.531C23.1 557.252 8.128 562.117 4.61092 573.534C3.43509 577.351 3.84165 582.92 6.84243 585.917Z" stroke="#D9C5A0" stroke-width="7" stroke-linecap="round"/>
</svg>
