<svg width="514" height="241" viewBox="0 0 514 241" fill="none" xmlns="http://www.w3.org/2000/svg">
<path d="M10.324 19.9521H16.3317C19.249 19.9521 21.2269 20.8421 22.2652 22.6222C22.7762 23.4793 23.1306 24.4105 23.3283 25.4159C23.5261 26.4213 23.625 27.5421 23.625 28.7783C23.625 29.9979 23.5673 31.0281 23.452 31.8687C23.3366 32.7093 23.1141 33.5334 22.7844 34.341C22.4713 35.1321 22.051 35.7832 21.5236 36.2941C20.3533 37.4314 18.6227 38 16.3317 38H10.324V19.9521ZM15.8867 22.548H13.6863V35.4041H15.8867C17.6503 35.4041 18.8452 34.7695 19.4715 33.5004C19.999 32.3961 20.2627 30.888 20.2627 28.9761C20.2627 27.0641 19.999 25.556 19.4715 24.4517C18.8452 23.1826 17.6503 22.548 15.8867 22.548ZM30.1085 34.5635C30.537 35.3876 31.3611 35.7996 32.5808 35.7996C33.8004 35.7996 34.6246 35.3876 35.0531 34.5635C35.4816 33.7394 35.6959 32.5279 35.6959 30.9292C35.6959 29.3304 35.4816 28.119 35.0531 27.2949C34.6246 26.4708 33.8004 26.0587 32.5808 26.0587C31.3611 26.0587 30.537 26.4708 30.1085 27.2949C29.6799 28.119 29.4657 29.3304 29.4657 30.9292C29.4657 32.5279 29.6799 33.7394 30.1085 34.5635ZM39.0088 30.9292C39.0088 35.8738 36.8661 38.3461 32.5808 38.3461C28.2954 38.3461 26.1528 35.8738 26.1528 30.9292C26.1528 25.9846 28.2954 23.5122 32.5808 23.5122C36.8661 23.5122 39.0088 25.9846 39.0088 30.9292ZM52.9078 43.8594L49.9658 43.4144L51.9683 38.1978L46.8012 23.8584H50.1388L53.5259 33.6982L56.5916 23.8584H59.9786L52.9078 43.8594ZM64.9478 34.5635C65.3763 35.3876 66.2004 35.7996 67.4201 35.7996C68.6398 35.7996 69.4639 35.3876 69.8924 34.5635C70.321 33.7394 70.5352 32.5279 70.5352 30.9292C70.5352 29.3304 70.321 28.119 69.8924 27.2949C69.4639 26.4708 68.6398 26.0587 67.4201 26.0587C66.2004 26.0587 65.3763 26.4708 64.9478 27.2949C64.5193 28.119 64.305 29.3304 64.305 30.9292C64.305 32.5279 64.5193 33.7394 64.9478 34.5635ZM73.8481 30.9292C73.8481 35.8738 71.7054 38.3461 67.4201 38.3461C63.1348 38.3461 60.9921 35.8738 60.9921 30.9292C60.9921 25.9846 63.1348 23.5122 67.4201 23.5122C71.7054 23.5122 73.8481 25.9846 73.8481 30.9292ZM81.1611 38.3461C78.2603 38.3461 76.8099 36.8463 76.8099 33.8465V23.8584H80.1228V33.3026C80.1228 34.1597 80.2876 34.7942 80.6172 35.2063C80.9634 35.6019 81.532 35.7996 82.3231 35.7996C83.4439 35.7996 84.507 35.2722 85.5124 34.2174V23.8584H88.8253V38H86.6744L85.7349 36.2941C84.4493 37.6621 82.9247 38.3461 81.1611 38.3461ZM103.596 38H100.283V19.4082L103.596 19.161V29.248H104.61L108.343 23.8584H111.928L107.181 30.5831L112.373 38H108.788L104.288 31.4731H103.596V38ZM117.125 25.144C118.674 24.0562 120.256 23.5122 121.871 23.5122C123.503 23.5122 124.682 23.9161 125.407 24.7237C126.132 25.5148 126.495 26.6109 126.495 28.0119V38H123.182V28.358C123.182 27.5174 123.025 26.924 122.712 26.5779C122.415 26.2318 121.888 26.0587 121.13 26.0587C119.943 26.0587 118.839 26.4296 117.817 27.1713V38H114.504V23.8584H116.062L117.125 25.144ZM133.419 34.5635C133.848 35.3876 134.672 35.7996 135.892 35.7996C137.111 35.7996 137.935 35.3876 138.364 34.5635C138.792 33.7394 139.007 32.5279 139.007 30.9292C139.007 29.3304 138.792 28.119 138.364 27.2949C137.935 26.4708 137.111 26.0587 135.892 26.0587C134.672 26.0587 133.848 26.4708 133.419 27.2949C132.991 28.119 132.776 29.3304 132.776 30.9292C132.776 32.5279 132.991 33.7394 133.419 34.5635ZM142.32 30.9292C142.32 35.8738 140.177 38.3461 135.892 38.3461C131.606 38.3461 129.464 35.8738 129.464 30.9292C129.464 25.9846 131.606 23.5122 135.892 23.5122C140.177 23.5122 142.32 25.9846 142.32 30.9292ZM150.177 38H147.061L143.427 23.8584H146.765L148.841 33.5498L151.165 25.0945H153.959L156.283 33.5498L158.385 23.8584H161.722L158.113 38H154.973L152.575 29.4458L150.177 38ZM168.971 26.0093V23.8584H171.246V21.2872L174.559 20.4466V23.8584H177.253V26.0093H174.559V33.9949C174.559 34.7036 174.657 35.2063 174.855 35.503C175.069 35.7996 175.374 35.948 175.77 35.948C176.182 35.948 176.627 35.8821 177.105 35.7502L177.525 37.8022C176.553 38.1648 175.679 38.3461 174.905 38.3461C174.146 38.3461 173.537 38.2555 173.075 38.0742C172.614 37.8929 172.268 37.6868 172.037 37.4561C171.806 37.2089 171.633 36.8792 171.518 36.4672C171.336 35.8903 171.246 35.1733 171.246 34.3163V26.0093H168.971ZM183.294 24.7237C184.646 23.9161 186.063 23.5122 187.547 23.5122C189.047 23.5122 190.159 23.9161 190.884 24.7237C191.61 25.5148 191.972 26.6109 191.972 28.0119V38H188.659V28.358C188.659 27.5174 188.503 26.924 188.19 26.5779C187.893 26.2318 187.366 26.0587 186.607 26.0587C185.421 26.0587 184.316 26.4296 183.294 27.1713V38H179.982V19.4082L183.294 19.161V24.7237ZM201.345 23.5122C204.938 23.5122 206.734 25.1522 206.734 28.4321V38H204.583L203.644 36.2694C202.325 37.6539 200.784 38.3461 199.021 38.3461C197.768 38.3461 196.812 38 196.153 37.3078C195.51 36.599 195.188 35.6595 195.188 34.4893C195.188 33.3026 195.559 32.3466 196.301 31.6214C197.043 30.8962 198.427 30.3853 200.454 30.0886L203.421 29.6436V28.4569C203.421 26.8581 202.663 26.0587 201.147 26.0587C199.713 26.0587 198.864 26.7839 198.6 28.2344L196.029 27.4679C196.655 24.8308 198.427 23.5122 201.345 23.5122ZM200.084 35.9233C201.204 35.9233 202.317 35.3711 203.421 34.2668V31.7203L201.048 32.1406C199.977 32.3219 199.268 32.6104 198.922 33.0059C198.576 33.4015 198.402 33.8465 198.402 34.341C198.402 34.8354 198.551 35.2228 198.847 35.503C199.144 35.7832 199.556 35.9233 200.084 35.9233ZM209.025 26.0093V23.8584H211.3V21.2872L214.613 20.4466V23.8584H217.308V26.0093H214.613V33.9949C214.613 34.7036 214.712 35.2063 214.91 35.503C215.124 35.7996 215.429 35.948 215.824 35.948C216.236 35.948 216.681 35.8821 217.159 35.7502L217.58 37.8022C216.607 38.1648 215.734 38.3461 214.959 38.3461C214.201 38.3461 213.591 38.2555 213.13 38.0742C212.668 37.8929 212.322 37.6868 212.091 37.4561C211.86 37.2089 211.687 36.8792 211.572 36.4672C211.391 35.8903 211.3 35.1733 211.3 34.3163V26.0093H209.025Z" fill="white"/>
<path d="M188.031 58.0093V55.8584H190.306V53.2872L193.618 52.4466V55.8584H196.313V58.0093H193.618V65.9949C193.618 66.7036 193.717 67.2063 193.915 67.503C194.129 67.7996 194.434 67.948 194.83 67.948C195.242 67.948 195.687 67.8821 196.165 67.7502L196.585 69.8022C195.613 70.1648 194.739 70.3461 193.965 70.3461C193.206 70.3461 192.597 70.2555 192.135 70.0742C191.674 69.8929 191.327 69.6868 191.097 69.4561C190.866 69.2089 190.693 68.8792 190.578 68.4672C190.396 67.8903 190.306 67.1733 190.306 66.3163V58.0093H188.031ZM202.354 56.7237C203.706 55.9161 205.123 55.5122 206.607 55.5122C208.107 55.5122 209.219 55.9161 209.944 56.7237C210.67 57.5148 211.032 58.6109 211.032 60.0119V70H207.719V60.358C207.719 59.5174 207.563 58.924 207.25 58.5779C206.953 58.2318 206.425 58.0587 205.667 58.0587C204.481 58.0587 203.376 58.4296 202.354 59.1713V70H199.042V51.4082L202.354 51.161V56.7237ZM220.33 70.3461C218.056 70.3461 216.432 69.7363 215.46 68.5166C214.487 67.2805 214.001 65.418 214.001 62.9292C214.001 57.9846 216.078 55.5122 220.231 55.5122C222.621 55.5122 224.253 56.2539 225.127 57.7373C225.885 59.0064 226.264 60.6547 226.264 62.682V63.572H217.215C217.232 65.1213 217.487 66.2174 217.982 66.8602C218.476 67.4865 219.292 67.7996 220.429 67.7996C222.259 67.7996 223.231 67.1404 223.346 65.8218L226.066 65.9207C225.802 68.871 223.89 70.3461 220.33 70.3461ZM222.234 58.8746C221.822 58.3307 221.146 58.0587 220.207 58.0587C219.267 58.0587 218.575 58.3224 218.13 58.8499C217.701 59.3608 217.421 60.1849 217.289 61.3222H223C222.901 60.2179 222.646 59.402 222.234 58.8746ZM232.679 70H229.366V55.8584H230.924L232.234 58.0587C233.371 56.4435 234.978 55.5947 237.055 55.5122V58.3554C235.11 58.4049 233.651 58.9982 232.679 60.1355V70ZM244.329 70.3461C242.055 70.3461 240.431 69.7363 239.459 68.5166C238.486 67.2805 238 65.418 238 62.9292C238 57.9846 240.077 55.5122 244.23 55.5122C246.62 55.5122 248.252 56.2539 249.125 57.7373C249.884 59.0064 250.263 60.6547 250.263 62.682V63.572H241.214C241.23 65.1213 241.486 66.2174 241.98 66.8602C242.475 67.4865 243.291 67.7996 244.428 67.7996C246.257 67.7996 247.23 67.1404 247.345 65.8218L250.065 65.9207C249.801 68.871 247.889 70.3461 244.329 70.3461ZM246.233 58.8746C245.821 58.3307 245.145 58.0587 244.205 58.0587C243.266 58.0587 242.574 58.3224 242.129 58.8499C241.7 59.3608 241.42 60.1849 241.288 61.3222H246.999C246.9 60.2179 246.645 59.402 246.233 58.8746ZM260.173 55.8584H263.486V70H260.173V55.8584ZM261.83 54.1772C260.594 54.1772 259.976 53.5426 259.976 52.2735C259.976 50.9879 260.594 50.3451 261.83 50.3451C263.099 50.3451 263.733 50.9879 263.733 52.2735C263.733 53.5426 263.099 54.1772 261.83 54.1772ZM278.252 66.0443C278.252 68.8627 276.275 70.272 272.319 70.272C270.588 70.272 269.303 69.9011 268.462 69.1594C267.622 68.4012 267.094 67.3052 266.88 65.8712L269.451 65.4757C269.632 67.0579 270.613 67.8491 272.393 67.8491C274.19 67.8491 275.088 67.2887 275.088 66.1679C275.088 65.7064 274.907 65.3603 274.544 65.1295C274.198 64.8988 273.489 64.6598 272.418 64.4126L271.281 64.1406C269.814 63.7945 268.759 63.2918 268.116 62.6325C267.49 61.9567 267.177 60.9843 267.177 59.7152C267.177 56.9132 269.088 55.5122 272.912 55.5122C274.56 55.5122 275.788 55.8913 276.596 56.6495C277.42 57.3912 277.931 58.479 278.129 59.913L275.558 60.2838C275.376 58.718 274.462 57.9351 272.813 57.9351C271.182 57.9351 270.366 58.4955 270.366 59.6163C270.366 60.0778 270.522 60.4321 270.836 60.6794C271.165 60.9101 271.824 61.1409 272.813 61.3716L274.099 61.693C275.566 62.0556 276.621 62.5666 277.264 63.2259C277.923 63.8687 278.252 64.8081 278.252 66.0443ZM293.415 55.5122C297.008 55.5122 298.805 57.1522 298.805 60.4321V70H296.654L295.714 68.2694C294.396 69.6539 292.855 70.3461 291.091 70.3461C289.838 70.3461 288.882 70 288.223 69.3078C287.58 68.599 287.259 67.6595 287.259 66.4893C287.259 65.3026 287.63 64.3466 288.371 63.6214C289.113 62.8962 290.498 62.3853 292.525 62.0886L295.492 61.6436V60.4569C295.492 58.8581 294.733 58.0587 293.217 58.0587C291.783 58.0587 290.934 58.7839 290.671 60.2344L288.099 59.4679C288.726 56.8308 290.498 55.5122 293.415 55.5122ZM292.154 67.9233C293.275 67.9233 294.387 67.3711 295.492 66.2668V63.7203L293.118 64.1406C292.047 64.3219 291.338 64.6104 290.992 65.0059C290.646 65.4015 290.473 65.8465 290.473 66.341C290.473 66.8354 290.621 67.2228 290.918 67.503C291.215 67.7832 291.627 67.9233 292.154 67.9233ZM316.261 70H312.577L307.781 55.8584H311.118L314.407 66.0937L317.719 55.8584H321.057L316.261 70ZM328.447 55.5122C332.04 55.5122 333.837 57.1522 333.837 60.4321V70H331.686L330.747 68.2694C329.428 69.6539 327.887 70.3461 326.123 70.3461C324.871 70.3461 323.915 70 323.256 69.3078C322.613 68.599 322.291 67.6595 322.291 66.4893C322.291 65.3026 322.662 64.3466 323.404 63.6214C324.146 62.8962 325.53 62.3853 327.557 62.0886L330.524 61.6436V60.4569C330.524 58.8581 329.766 58.0587 328.25 58.0587C326.816 58.0587 325.967 58.7839 325.703 60.2344L323.132 59.4679C323.758 56.8308 325.53 55.5122 328.447 55.5122ZM327.186 67.9233C328.307 67.9233 329.42 67.3711 330.524 66.2668V63.7203L328.151 64.1406C327.079 64.3219 326.371 64.6104 326.025 65.0059C325.678 65.4015 325.505 65.8465 325.505 66.341C325.505 66.8354 325.654 67.2228 325.95 67.503C326.247 67.7832 326.659 67.9233 327.186 67.9233ZM341.543 70H338.23V55.8584H339.787L341.098 58.0587C342.235 56.4435 343.842 55.5947 345.919 55.5122V58.3554C343.974 58.4049 342.515 58.9982 341.543 60.1355V70ZM348.298 55.8584H351.611V70H348.298V55.8584ZM349.954 54.1772C348.718 54.1772 348.1 53.5426 348.1 52.2735C348.1 50.9879 348.718 50.3451 349.954 50.3451C351.223 50.3451 351.858 50.9879 351.858 52.2735C351.858 53.5426 351.223 54.1772 349.954 54.1772ZM361.16 70.3461C358.886 70.3461 357.262 69.7363 356.29 68.5166C355.317 67.2805 354.831 65.418 354.831 62.9292C354.831 57.9846 356.908 55.5122 361.061 55.5122C363.451 55.5122 365.083 56.2539 365.957 57.7373C366.715 59.0064 367.094 60.6547 367.094 62.682V63.572H358.045C358.062 65.1213 358.317 66.2174 358.812 66.8602C359.306 67.4865 360.122 67.7996 361.259 67.7996C363.089 67.7996 364.061 67.1404 364.177 65.8218L366.896 65.9207C366.632 68.871 364.72 70.3461 361.16 70.3461ZM363.064 58.8746C362.652 58.3307 361.976 58.0587 361.037 58.0587C360.097 58.0587 359.405 58.3224 358.96 58.8499C358.531 59.3608 358.251 60.1849 358.119 61.3222H363.83C363.732 60.2179 363.476 59.402 363.064 58.8746ZM368.095 58.0093V55.8584H370.369V53.2872L373.682 52.4466V55.8584H376.377V58.0093H373.682V65.9949C373.682 66.7036 373.781 67.2063 373.979 67.503C374.193 67.7996 374.498 67.948 374.893 67.948C375.305 67.948 375.751 67.8821 376.228 67.7502L376.649 69.8022C375.676 70.1648 374.803 70.3461 374.028 70.3461C373.27 70.3461 372.66 70.2555 372.199 70.0742C371.737 69.8929 371.391 69.6868 371.16 69.4561C370.929 69.2089 370.756 68.8792 370.641 68.4672C370.46 67.8903 370.369 67.1733 370.369 66.3163V58.0093H368.095ZM382.987 75.8594L380.045 75.4144L382.047 70.1978L376.88 55.8584H380.218L383.605 65.6982L386.67 55.8584H390.057L382.987 75.8594ZM401.835 66.5635C402.264 67.3876 403.088 67.7996 404.307 67.7996C405.527 67.7996 406.351 67.3876 406.78 66.5635C407.208 65.7394 407.423 64.5279 407.423 62.9292C407.423 61.3304 407.208 60.119 406.78 59.2949C406.351 58.4708 405.527 58.0587 404.307 58.0587C403.088 58.0587 402.264 58.4708 401.835 59.2949C401.407 60.119 401.192 61.3304 401.192 62.9292C401.192 64.5279 401.407 65.7394 401.835 66.5635ZM410.735 62.9292C410.735 67.8738 408.593 70.3461 404.307 70.3461C400.022 70.3461 397.879 67.8738 397.879 62.9292C397.879 57.9846 400.022 55.5122 404.307 55.5122C408.593 55.5122 410.735 57.9846 410.735 62.9292ZM418.864 53.4355C417.991 53.4355 417.554 53.9217 417.554 54.8942V55.8584H420.224V58.0093H417.554V70H414.241V58.0093H412.708V55.8584H414.241V54.8942C414.241 52.1911 415.667 50.8396 418.518 50.8396C419.59 50.8396 420.529 50.9879 421.337 51.2846L420.521 53.7816C419.96 53.5509 419.408 53.4355 418.864 53.4355Z" fill="white"/>
<path d="M104.27 214.45V211.84H107.03V208.72L111.05 207.7V211.84H114.32V214.45H111.05V224.14C111.05 225 111.17 225.61 111.41 225.97C111.67 226.33 112.04 226.51 112.52 226.51C113.02 226.51 113.56 226.43 114.14 226.27L114.65 228.76C113.47 229.2 112.41 229.42 111.47 229.42C110.55 229.42 109.81 229.31 109.25 229.09C108.69 228.87 108.27 228.62 107.99 228.34C107.71 228.04 107.5 227.64 107.36 227.14C107.14 226.44 107.03 225.57 107.03 224.53V214.45H104.27ZM121.651 212.89C123.291 211.91 125.011 211.42 126.811 211.42C128.631 211.42 129.981 211.91 130.861 212.89C131.741 213.85 132.181 215.18 132.181 216.88V229H128.161V217.3C128.161 216.28 127.971 215.56 127.591 215.14C127.231 214.72 126.591 214.51 125.671 214.51C124.231 214.51 122.891 214.96 121.651 215.86V229H117.631V206.44L121.651 206.14V212.89ZM143.553 211.42C147.913 211.42 150.093 213.41 150.093 217.39V229H147.483L146.343 226.9C144.743 228.58 142.873 229.42 140.733 229.42C139.213 229.42 138.053 229 137.253 228.16C136.473 227.3 136.083 226.16 136.083 224.74C136.083 223.3 136.533 222.14 137.433 221.26C138.333 220.38 140.013 219.76 142.473 219.4L146.073 218.86V217.42C146.073 215.48 145.153 214.51 143.313 214.51C141.573 214.51 140.543 215.39 140.223 217.15L137.103 216.22C137.863 213.02 140.013 211.42 143.553 211.42ZM142.023 226.48C143.383 226.48 144.733 225.81 146.073 224.47V221.38L143.193 221.89C141.893 222.11 141.033 222.46 140.613 222.94C140.193 223.42 139.983 223.96 139.983 224.56C139.983 225.16 140.163 225.63 140.523 225.97C140.883 226.31 141.383 226.48 142.023 226.48ZM152.874 214.45V211.84H155.634V208.72L159.654 207.7V211.84H162.924V214.45H159.654V224.14C159.654 225 159.774 225.61 160.014 225.97C160.274 226.33 160.644 226.51 161.124 226.51C161.624 226.51 162.164 226.43 162.744 226.27L163.254 228.76C162.074 229.2 161.014 229.42 160.074 229.42C159.154 229.42 158.414 229.31 157.854 229.09C157.294 228.87 156.874 228.62 156.594 228.34C156.314 228.04 156.104 227.64 155.964 227.14C155.744 226.44 155.634 225.57 155.634 224.53V214.45H152.874ZM177.526 215.95C177.026 216.91 176.776 218.4 176.776 220.42C176.776 222.44 177.026 223.93 177.526 224.89C178.046 225.85 178.936 226.33 180.196 226.33C181.476 226.33 182.386 226.07 182.926 225.55C183.486 225.03 183.786 224.21 183.826 223.09L186.976 223.24C186.856 225.28 186.256 226.82 185.176 227.86C184.116 228.9 182.366 229.42 179.926 229.42C177.066 229.42 175.116 228.49 174.076 226.63C173.576 225.73 173.226 224.79 173.026 223.81C172.846 222.83 172.756 221.7 172.756 220.42C172.756 219.12 172.846 217.98 173.026 217C173.226 216 173.576 215.06 174.076 214.18C175.096 212.34 177.046 211.42 179.926 211.42C182.346 211.42 184.086 211.92 185.146 212.92C186.206 213.9 186.806 215.37 186.946 217.33L183.826 217.75C183.786 216.63 183.486 215.81 182.926 215.29C182.386 214.77 181.476 214.51 180.196 214.51C178.936 214.51 178.046 214.99 177.526 215.95ZM196.61 211.42C200.97 211.42 203.15 213.41 203.15 217.39V229H200.54L199.4 226.9C197.8 228.58 195.93 229.42 193.79 229.42C192.27 229.42 191.11 229 190.31 228.16C189.53 227.3 189.14 226.16 189.14 224.74C189.14 223.3 189.59 222.14 190.49 221.26C191.39 220.38 193.07 219.76 195.53 219.4L199.13 218.86V217.42C199.13 215.48 198.21 214.51 196.37 214.51C194.63 214.51 193.6 215.39 193.28 217.15L190.16 216.22C190.92 213.02 193.07 211.42 196.61 211.42ZM195.08 226.48C196.44 226.48 197.79 225.81 199.13 224.47V221.38L196.25 221.89C194.95 222.11 194.09 222.46 193.67 222.94C193.25 223.42 193.04 223.96 193.04 224.56C193.04 225.16 193.22 225.63 193.58 225.97C193.94 226.31 194.44 226.48 195.08 226.48ZM211.66 213.4C213.54 212.08 215.46 211.42 217.42 211.42C219.4 211.42 220.83 211.91 221.71 212.89C222.59 213.85 223.03 215.18 223.03 216.88V229H219.01V217.3C219.01 216.28 218.82 215.56 218.44 215.14C218.08 214.72 217.44 214.51 216.52 214.51C215.08 214.51 213.74 214.96 212.5 215.86V229H208.48V211.84H210.37L211.66 213.4ZM239.664 215.95C239.164 216.91 238.914 218.4 238.914 220.42C238.914 222.44 239.164 223.93 239.664 224.89C240.184 225.85 241.074 226.33 242.334 226.33C243.614 226.33 244.524 226.07 245.064 225.55C245.624 225.03 245.924 224.21 245.964 223.09L249.114 223.24C248.994 225.28 248.394 226.82 247.314 227.86C246.254 228.9 244.504 229.42 242.064 229.42C239.204 229.42 237.254 228.49 236.214 226.63C235.714 225.73 235.364 224.79 235.164 223.81C234.984 222.83 234.894 221.7 234.894 220.42C234.894 219.12 234.984 217.98 235.164 217C235.364 216 235.714 215.06 236.214 214.18C237.234 212.34 239.184 211.42 242.064 211.42C244.484 211.42 246.224 211.92 247.284 212.92C248.344 213.9 248.944 215.37 249.084 217.33L245.964 217.75C245.924 216.63 245.624 215.81 245.064 215.29C244.524 214.77 243.614 214.51 242.334 214.51C241.074 214.51 240.184 214.99 239.664 215.95ZM257.698 229.42C254.178 229.42 252.418 227.6 252.418 223.96V211.84H256.438V223.3C256.438 224.34 256.638 225.11 257.038 225.61C257.458 226.09 258.148 226.33 259.108 226.33C260.468 226.33 261.758 225.69 262.978 224.41V211.84H266.998V229H264.388L263.248 226.93C261.688 228.59 259.838 229.42 257.698 229.42ZM276.66 229H272.64V211.84H274.53L276.12 214.51C277.5 212.55 279.45 211.52 281.97 211.42V214.87C279.61 214.93 277.84 215.65 276.66 217.03V229ZM290.797 229.42C288.037 229.42 286.067 228.68 284.887 227.2C283.707 225.7 283.117 223.44 283.117 220.42C283.117 214.42 285.637 211.42 290.677 211.42C293.577 211.42 295.557 212.32 296.617 214.12C297.537 215.66 297.997 217.66 297.997 220.12V221.2H287.017C287.037 223.08 287.347 224.41 287.947 225.19C288.547 225.95 289.537 226.33 290.917 226.33C293.137 226.33 294.317 225.53 294.457 223.93L297.757 224.05C297.437 227.63 295.117 229.42 290.797 229.42ZM293.107 215.5C292.607 214.84 291.787 214.51 290.647 214.51C289.507 214.51 288.667 214.83 288.127 215.47C287.607 216.09 287.267 217.09 287.107 218.47H294.037C293.917 217.13 293.607 216.14 293.107 215.5ZM414.415 228.46C414.295 228.72 414.075 228.91 413.755 229.03C413.455 229.17 413.025 229.24 412.465 229.24C411.905 229.24 411.455 229.11 411.115 228.85C410.795 228.59 410.595 228.32 410.515 228.04C410.455 227.74 410.425 227.39 410.425 226.99C410.425 226.59 410.445 226.28 410.485 226.06C410.525 225.82 410.605 225.57 410.725 225.31C411.005 224.79 411.615 224.53 412.555 224.53C413.535 224.53 414.165 224.79 414.445 225.31C414.645 225.73 414.745 226.19 414.745 226.69C414.745 227.17 414.725 227.52 414.685 227.74C414.645 227.96 414.555 228.2 414.415 228.46ZM406.885 211.87C407.045 210.23 407.665 208.96 408.745 208.06C409.845 207.14 411.415 206.68 413.455 206.68C415.495 206.68 417.105 207.3 418.285 208.54C419.485 209.76 420.085 211.21 420.085 212.89C420.085 214.55 419.525 215.93 418.405 217.03C417.305 218.11 415.875 218.91 414.115 219.43L413.785 222.73H411.265L410.995 218.05C412.815 217.49 414.115 216.82 414.895 216.04C415.675 215.24 416.065 214.32 416.065 213.28C416.065 212.24 415.825 211.39 415.345 210.73C414.885 210.05 414.175 209.71 413.215 209.71C411.455 209.71 410.495 210.59 410.335 212.35L406.885 211.87Z" fill="white"/>
<path d="M313.053 215.95C312.553 216.91 312.303 218.4 312.303 220.42C312.303 222.44 312.553 223.93 313.053 224.89C313.573 225.85 314.463 226.33 315.723 226.33C317.003 226.33 317.913 226.07 318.453 225.55C319.013 225.03 319.313 224.21 319.353 223.09L322.503 223.24C322.383 225.28 321.783 226.82 320.703 227.86C319.643 228.9 317.893 229.42 315.453 229.42C312.593 229.42 310.643 228.49 309.603 226.63C309.103 225.73 308.753 224.79 308.553 223.81C308.373 222.83 308.283 221.7 308.283 220.42C308.283 219.12 308.373 217.98 308.553 217C308.753 216 309.103 215.06 309.603 214.18C310.623 212.34 312.573 211.42 315.453 211.42C317.873 211.42 319.613 211.92 320.673 212.92C321.733 213.9 322.333 215.37 322.473 217.33L319.353 217.75C319.313 216.63 319.013 215.81 318.453 215.29C317.913 214.77 317.003 214.51 315.723 214.51C314.463 214.51 313.573 214.99 313.053 215.95ZM332.137 211.42C336.497 211.42 338.677 213.41 338.677 217.39V229H336.067L334.927 226.9C333.327 228.58 331.457 229.42 329.317 229.42C327.797 229.42 326.637 229 325.837 228.16C325.057 227.3 324.667 226.16 324.667 224.74C324.667 223.3 325.117 222.14 326.017 221.26C326.917 220.38 328.597 219.76 331.057 219.4L334.657 218.86V217.42C334.657 215.48 333.737 214.51 331.897 214.51C330.157 214.51 329.127 215.39 328.807 217.15L325.687 216.22C326.447 213.02 328.597 211.42 332.137 211.42ZM330.607 226.48C331.967 226.48 333.317 225.81 334.657 224.47V221.38L331.777 221.89C330.477 222.11 329.617 222.46 329.197 222.94C328.777 223.42 328.567 223.96 328.567 224.56C328.567 225.16 328.747 225.63 329.107 225.97C329.467 226.31 329.967 226.48 330.607 226.48ZM347.188 213.4C349.068 212.08 350.988 211.42 352.948 211.42C354.928 211.42 356.358 211.91 357.238 212.89C358.118 213.85 358.558 215.18 358.558 216.88V229H354.538V217.3C354.538 216.28 354.348 215.56 353.968 215.14C353.608 214.72 352.968 214.51 352.048 214.51C350.608 214.51 349.268 214.96 348.028 215.86V229H344.008V211.84H345.898L347.188 213.4ZM366.93 215.95C366.43 216.91 366.18 218.4 366.18 220.42C366.18 222.44 366.43 223.93 366.93 224.89C367.45 225.85 368.34 226.33 369.6 226.33C370.88 226.33 371.79 226.07 372.33 225.55C372.89 225.03 373.19 224.21 373.23 223.09L376.38 223.24C376.26 225.28 375.66 226.82 374.58 227.86C373.52 228.9 371.77 229.42 369.33 229.42C366.47 229.42 364.52 228.49 363.48 226.63C362.98 225.73 362.63 224.79 362.43 223.81C362.25 222.83 362.16 221.7 362.16 220.42C362.16 219.12 362.25 217.98 362.43 217C362.63 216 362.98 215.06 363.48 214.18C364.5 212.34 366.45 211.42 369.33 211.42C371.75 211.42 373.49 211.92 374.55 212.92C375.61 213.9 376.21 215.37 376.35 217.33L373.23 217.75C373.19 216.63 372.89 215.81 372.33 215.29C371.79 214.77 370.88 214.51 369.6 214.51C368.34 214.51 367.45 214.99 366.93 215.95ZM385.924 229.42C383.164 229.42 381.194 228.68 380.014 227.2C378.834 225.7 378.244 223.44 378.244 220.42C378.244 214.42 380.764 211.42 385.804 211.42C388.704 211.42 390.684 212.32 391.744 214.12C392.664 215.66 393.124 217.66 393.124 220.12V221.2H382.144C382.164 223.08 382.474 224.41 383.074 225.19C383.674 225.95 384.664 226.33 386.044 226.33C388.264 226.33 389.444 225.53 389.584 223.93L392.884 224.05C392.564 227.63 390.244 229.42 385.924 229.42ZM388.234 215.5C387.734 214.84 386.914 214.51 385.774 214.51C384.634 214.51 383.794 214.83 383.254 215.47C382.734 216.09 382.394 217.09 382.234 218.47H389.164C389.044 217.13 388.734 216.14 388.234 215.5ZM400.908 229H396.888V211.84H398.778L400.368 214.51C401.748 212.55 403.698 211.52 406.218 211.42V214.87C403.858 214.93 402.088 215.65 400.908 217.03V229Z" fill="#F5928D"/>
<path d="M13.7937 189V64.4737H60.9221C69.8625 64.4737 78.1004 65.687 85.6358 68.1137C93.1712 70.4126 99.2379 74.4996 103.836 80.3747C108.434 86.2498 110.733 94.36 110.733 104.705C110.733 113.646 108.881 121.053 105.177 126.928C101.473 132.804 96.6197 137.401 90.6168 140.722L117.629 189H80.8463L59.3895 147.236H46.7453V189H13.7937ZM46.7453 121.181H58.6232C71.906 121.181 78.5474 115.689 78.5474 104.705C78.5474 99.341 76.8232 95.6372 73.3747 93.5937C70.054 91.5502 65.1368 90.5284 58.6232 90.5284H46.7453V121.181ZM131.784 189V93.2105H164.735V189H131.784ZM148.26 81.3326C142.895 81.3326 138.553 79.8639 135.232 76.9263C131.912 73.861 130.251 69.8379 130.251 64.8568C130.251 59.8758 131.912 55.9165 135.232 52.9789C138.553 49.9137 142.895 48.381 148.26 48.381C153.624 48.381 157.966 49.9137 161.287 52.9789C164.608 55.9165 166.268 59.8758 166.268 64.8568C166.268 69.8379 164.608 73.861 161.287 76.9263C157.966 79.8639 153.624 81.3326 148.26 81.3326ZM230.272 191.299C221.204 191.299 213.03 189.319 205.75 185.36C198.47 181.401 192.659 175.717 188.316 168.309C184.101 160.774 181.994 151.706 181.994 141.105C181.994 130.505 184.357 121.5 189.082 114.093C193.936 106.557 200.258 100.81 208.049 96.8505C215.84 92.8912 224.269 90.9116 233.337 90.9116C239.085 90.9116 244.257 91.8056 248.855 93.5937C253.581 95.3817 257.732 97.8084 261.308 100.874L245.981 121.947C243.938 120.159 242.086 118.946 240.426 118.307C238.765 117.669 237.041 117.349 235.253 117.349C229.122 117.349 224.333 119.521 220.885 123.863C217.436 128.078 215.712 133.825 215.712 141.105C215.712 148.385 217.5 154.196 221.076 158.539C224.652 162.754 228.995 164.861 234.103 164.861C236.786 164.861 239.404 164.286 241.958 163.137C244.64 161.86 247.131 160.391 249.43 158.731L262.074 180.187C257.348 184.402 252.112 187.34 246.365 189C240.617 190.533 235.253 191.299 230.272 191.299ZM315.986 191.299C306.662 191.299 298.233 189.319 290.697 185.36C283.289 181.401 277.414 175.717 273.072 168.309C268.729 160.774 266.558 151.706 266.558 141.105C266.558 130.76 268.729 121.884 273.072 114.476C277.542 106.94 283.289 101.129 290.314 97.0421C297.339 92.9551 304.746 90.9116 312.537 90.9116C321.988 90.9116 329.779 93.0189 335.91 97.2337C342.168 101.321 346.766 106.876 349.703 113.901C352.769 120.926 354.301 128.716 354.301 137.274C354.301 140.084 354.11 142.829 353.727 145.512C353.471 148.066 353.216 149.918 352.96 151.067H298.36C299.893 156.815 302.639 160.838 306.598 163.137C310.557 165.308 315.219 166.394 320.583 166.394C326.714 166.394 333.228 164.478 340.124 160.646L350.853 180.187C345.744 183.764 339.997 186.509 333.611 188.425C327.225 190.341 321.35 191.299 315.986 191.299ZM297.977 129.611H326.331C326.331 125.907 325.373 122.714 323.457 120.032C321.669 117.222 318.284 115.817 313.303 115.817C309.727 115.817 306.534 116.902 303.724 119.074C300.915 121.245 298.999 124.757 297.977 129.611Z" fill="white"/>
</svg>
