<svg width="151" height="87" viewBox="0 0 151 87" fill="none" xmlns="http://www.w3.org/2000/svg">
<path d="M42.0264 72.6376C38.5906 72.6376 36.0935 71.6458 34.535 69.6623C33.0119 67.6433 32.2504 65.0222 32.2504 61.799V52.5544H28.7438V45.7537L32.7817 45.4349L33.8443 38.528H41.3888V45.4349H47.4456V52.5544H41.3888V61.6396C41.3888 63.0918 41.7076 64.1013 42.3451 64.668C42.9827 65.2348 43.7265 65.5181 44.5766 65.5181C45.0017 65.5181 45.409 65.4827 45.7986 65.4119C46.2237 65.3056 46.5956 65.1993 46.9143 65.0931L48.2957 71.6812C47.6227 71.8937 46.7727 72.1063 45.7455 72.3188C44.7183 72.5313 43.4786 72.6376 42.0264 72.6376Z" fill="white"/>
<path d="M34.535 69.6623L33.7367 70.2645L33.7426 70.2724L33.7487 70.2801L34.535 69.6623ZM32.2504 52.5544H33.2504V51.5544H32.2504V52.5544ZM28.7438 52.5544H27.7438V53.5544H28.7438V52.5544ZM28.7438 45.7537L28.6651 44.7568L27.7438 44.8295V45.7537H28.7438ZM32.7817 45.4349L32.8604 46.4318L33.6497 46.3695L33.7701 45.587L32.7817 45.4349ZM33.8443 38.528V37.528H32.9864L32.8559 38.3759L33.8443 38.528ZM41.3888 38.528H42.3888V37.528H41.3888V38.528ZM41.3888 45.4349H40.3888V46.4349H41.3888V45.4349ZM47.4456 45.4349H48.4456V44.4349H47.4456V45.4349ZM47.4456 52.5544V53.5544H48.4456V52.5544H47.4456ZM41.3888 52.5544V51.5544H40.3888V52.5544H41.3888ZM45.7986 65.4119L45.9775 66.3957L46.0095 66.3899L46.0411 66.382L45.7986 65.4119ZM46.9143 65.0931L47.8931 64.8879L47.6628 63.7895L46.5981 64.1444L46.9143 65.0931ZM48.2957 71.6812L48.5969 72.6348L49.4603 72.3622L49.2744 71.476L48.2957 71.6812ZM45.7455 72.3188L45.9481 73.298L45.7455 72.3188ZM42.0264 71.6376C38.7789 71.6376 36.6274 70.7067 35.3213 69.0444L33.7487 70.2801C35.5596 72.5849 38.4023 73.6376 42.0264 73.6376V71.6376ZM35.3333 69.06C33.9733 67.2572 33.2504 64.8651 33.2504 61.799H31.2504C31.2504 65.1794 32.0506 68.0295 33.7367 70.2645L35.3333 69.06ZM33.2504 61.799V52.5544H31.2504V61.799H33.2504ZM32.2504 51.5544H28.7438V53.5544H32.2504V51.5544ZM29.7438 52.5544V45.7537H27.7438V52.5544H29.7438ZM28.8225 46.7506L32.8604 46.4318L32.703 44.438L28.6651 44.7568L28.8225 46.7506ZM33.7701 45.587L34.8327 38.68L32.8559 38.3759L31.7933 45.2829L33.7701 45.587ZM33.8443 39.528H41.3888V37.528H33.8443V39.528ZM40.3888 38.528V45.4349H42.3888V38.528H40.3888ZM41.3888 46.4349H47.4456V44.4349H41.3888V46.4349ZM46.4456 45.4349V52.5544H48.4456V45.4349H46.4456ZM47.4456 51.5544H41.3888V53.5544H47.4456V51.5544ZM40.3888 52.5544V61.6396H42.3888V52.5544H40.3888ZM40.3888 61.6396C40.3888 63.1861 40.7195 64.561 41.6808 65.4154L43.0095 63.9206C42.6957 63.6417 42.3888 62.9976 42.3888 61.6396H40.3888ZM41.6808 65.4154C42.5007 66.1443 43.4807 66.5181 44.5766 66.5181V64.5181C43.9724 64.5181 43.4647 64.3253 43.0095 63.9206L41.6808 65.4154ZM44.5766 66.5181C45.0573 66.5181 45.5247 66.4781 45.9775 66.3957L45.6197 64.428C45.2933 64.4873 44.946 64.5181 44.5766 64.5181V66.5181ZM46.0411 66.382C46.484 66.2713 46.8815 66.1581 47.2306 66.0418L46.5981 64.1444C46.3096 64.2406 45.9633 64.3399 45.5561 64.4417L46.0411 66.382ZM45.9356 65.2983L47.317 71.8864L49.2744 71.476L47.8931 64.8879L45.9356 65.2983ZM47.9946 70.7276C47.3655 70.9263 46.5511 71.1309 45.5429 71.3395L45.9481 73.298C46.9942 73.0816 47.88 72.8612 48.5969 72.6348L47.9946 70.7276ZM45.5429 71.3395C44.6023 71.5341 43.4344 71.6376 42.0264 71.6376V73.6376C43.5228 73.6376 44.8343 73.5285 45.9481 73.298L45.5429 71.3395Z" fill="#689159"/>
<g clip-path="url(#clip0_117_1081)">
<path d="M79.3955 14.5339C75.5799 12.4478 71.2571 11.4699 66.9151 11.7106C60.1456 12.2881 56.0389 18.9774 58.5414 23.9183C57.5014 24.8529 56.541 25.8724 55.6699 26.9662C51.6136 32.3471 49.1162 38.7405 48.4512 45.4462L51.6595 51.8629C51.6595 51.8629 52.3172 39.575 57.2741 31.0087C58.2047 29.398 59.2389 27.8494 60.3701 26.3727C64.9901 30.8002 71.118 26.501 74.1499 22.9718C75.8673 20.9237 77.7103 18.9843 79.6683 17.1647C79.8666 16.996 80.0208 16.7815 80.1177 16.5399C80.2146 16.2982 80.2512 16.0365 80.2244 15.7775C80.1975 15.5185 80.108 15.27 79.9636 15.0533C79.8192 14.8366 79.6243 14.6584 79.3955 14.5339Z" fill="#689159"/>
<path d="M66.9162 15.2879C71.0661 15.0649 75.1996 15.9625 78.8833 17.8866C79.156 17.6139 79.4287 17.3572 79.6693 17.1487C79.8643 16.9797 80.0156 16.7661 80.1104 16.5262C80.2052 16.2862 80.2407 16.0269 80.214 15.7703C80.1872 15.5137 80.0989 15.2673 79.9566 15.052C79.8144 14.8368 79.6223 14.6591 79.3966 14.5339C75.581 12.4478 71.2582 11.4699 66.9162 11.7106C60.7723 12.2399 56.826 17.8064 58.0452 22.5227C58.5985 20.5498 59.7477 18.7961 61.3355 17.5011C62.9234 16.2061 64.8724 15.4332 66.9162 15.2879Z" fill="#78C65C"/>
<path d="M55.6699 30.5594C56.5368 29.4571 57.4976 28.432 58.5414 27.4955C58.0873 26.6042 57.8353 25.6238 57.8035 24.624C57.0489 25.3641 56.3366 26.146 55.6699 26.9661C51.6136 32.347 49.1162 38.7404 48.4512 45.4461L48.8362 46.2161C49.835 40.5276 52.1779 35.1598 55.6699 30.5594Z" fill="#78C65C"/>
<path d="M79.3955 14.5339C75.5799 12.4478 71.2571 11.4699 66.9151 11.7106C60.1456 12.2881 56.0389 18.9774 58.5414 23.9183C57.5014 24.8529 56.541 25.8724 55.6699 26.9662C51.6136 32.3471 49.1162 38.7405 48.4512 45.4462L51.6595 51.8629C51.6595 51.8629 52.3172 39.575 57.2741 31.0087C58.2047 29.398 59.2389 27.8494 60.3701 26.3727C64.9901 30.8002 71.118 26.501 74.1499 22.9718C75.8673 20.9237 77.7103 18.9843 79.6683 17.1647C79.8666 16.996 80.0208 16.7815 80.1177 16.5399C80.2146 16.2982 80.2512 16.0365 80.2244 15.7775C80.1975 15.5185 80.108 15.27 79.9636 15.0533C79.8192 14.8366 79.6243 14.6584 79.3955 14.5339V14.5339Z" stroke="#45413C" stroke-width="0.5" stroke-linecap="round" stroke-linejoin="round"/>
<path opacity="0.15" d="M31.832 74.4177C31.832 74.7568 32.31 75.0927 33.2387 75.406C34.1674 75.7194 35.5287 76.0041 37.2447 76.2439C38.9607 76.4837 40.9979 76.674 43.24 76.8038C45.4821 76.9336 47.8852 77.0004 50.312 77.0004C52.7389 77.0004 55.1419 76.9336 57.384 76.8038C59.6261 76.674 61.6633 76.4837 63.3794 76.2439C65.0954 76.0041 66.4566 75.7194 67.3853 75.406C68.314 75.0927 68.792 74.7568 68.792 74.4177C68.792 74.0785 68.314 73.7427 67.3853 73.4293C66.4566 73.116 65.0954 72.8312 63.3794 72.5914C61.6633 72.3516 59.6261 72.1614 57.384 72.0316C55.1419 71.9018 52.7389 71.835 50.312 71.835C47.8852 71.835 45.4821 71.9018 43.24 72.0316C40.9979 72.1614 38.9607 72.3516 37.2447 72.5914C35.5287 72.8312 34.1674 73.116 33.2387 73.4293C32.31 73.7427 31.832 74.0785 31.832 74.4177Z" fill="#45413C"/>
<path d="M48.4514 36.6076C45.6539 29.9251 41.3432 23.9834 35.8586 19.2505C36.4041 15.8015 36.9014 6.41717 27.2764 2.53508C18.4374 -1.09033 9.63052 1.84529 5.76448 3.57779C5.53196 3.68127 5.32739 3.83858 5.16768 4.03674C5.00796 4.23489 4.89769 4.46821 4.84597 4.71741C4.79425 4.9666 4.80257 5.22453 4.87023 5.46988C4.93789 5.71523 5.06296 5.94096 5.23511 6.12842C8.118 9.25179 10.6317 12.6967 12.7266 16.3951C17.6353 25.1057 28.1586 30.3193 34.9122 21.4643C39.0495 26.3131 42.0283 32.0404 43.6228 38.2118C49.2534 58.9697 46.3339 67.8407 45.0666 71.2736C44.8809 71.7696 44.8737 72.3148 45.0465 72.8154C45.2192 73.316 45.561 73.7408 46.013 74.0167C47.2446 74.7272 48.6342 75.1187 50.0555 75.1557C53.8253 75.3161 54.0659 72.7495 54.0659 72.7495C54.8879 60.4353 52.9704 48.092 48.4514 36.6076Z" fill="#689159"/>
<path d="M36.084 22.7949C37.0454 24.0237 37.9397 25.3036 38.7629 26.6289C42.9502 30.8277 46.2698 35.8098 48.5323 41.291C52.1017 50.3907 54.0612 60.0419 54.3234 69.8131C54.6285 58.4688 52.6595 47.1782 48.5323 36.6068C45.7521 29.9983 41.4936 24.1153 36.084 19.4102C36.1834 20.5362 36.1834 21.6689 36.084 22.7949Z" fill="#78C65C"/>
<path d="M6.75952 7.84448C10.9945 6.12802 19.0795 3.86615 27.2768 7.21886C29.633 8.08498 31.6972 9.59805 33.2323 11.5843C34.7674 13.5706 35.7112 15.9496 35.9554 18.448C36.4206 14.5659 36.2922 6.12802 27.2768 2.40636C18.2614 -1.31531 9.63098 1.73261 5.76493 3.46511C5.51169 3.56207 5.28715 3.72165 5.11231 3.92894C4.93747 4.13623 4.81804 4.38446 4.76516 4.65043C4.71229 4.91641 4.7277 5.19144 4.80997 5.44984C4.89223 5.70824 5.03865 5.94157 5.23556 6.12802C5.60452 6.60927 6.18202 7.17073 6.75952 7.84448Z" fill="#78C65C"/>
<path d="M48.4514 36.6076C45.6539 29.9251 41.3432 23.9834 35.8586 19.2505C36.4041 15.8015 36.9014 6.41717 27.2764 2.53509C18.4374 -1.09033 9.63052 1.84529 5.76448 3.57779C5.53196 3.68127 5.32739 3.83858 5.16768 4.03674C5.00796 4.23489 4.89769 4.46821 4.84597 4.71741C4.79425 4.9666 4.80257 5.22453 4.87023 5.46988C4.93789 5.71523 5.06296 5.94096 5.23511 6.12842C8.118 9.25179 10.6317 12.6967 12.7266 16.3951C17.6353 25.1057 28.1586 30.3193 34.9122 21.4643C39.0495 26.3131 42.0283 32.0404 43.6228 38.2118C49.2534 58.9697 46.3339 67.8407 45.0666 71.2736C44.8809 71.7696 44.8737 72.3148 45.0465 72.8154C45.2192 73.316 45.561 73.7408 46.013 74.0167C47.2446 74.7272 48.6342 75.1187 50.0555 75.1557C53.8253 75.3161 54.0659 72.7495 54.0659 72.7495C54.8879 60.4353 52.9704 48.092 48.4514 36.6076V36.6076Z" stroke="#45413C" stroke-width="0.5" stroke-linecap="round" stroke-linejoin="round"/>
<path d="M60.1465 23.2922C60.1465 23.2922 61.6544 15.8649 71.3757 16.0574L60.1465 23.2922Z" fill="#689159"/>
<path d="M60.1465 23.2922C60.1465 23.2922 61.6544 15.8649 71.3757 16.0574" stroke="#45413C" stroke-width="0.5" stroke-linecap="round" stroke-linejoin="round"/>
<path d="M32.8754 17.6458C32.3781 9.11167 20.8281 7.21875 20.8281 7.21875L32.8754 17.6458Z" fill="#689159"/>
<path d="M32.8754 17.6458C32.3781 9.11167 20.8281 7.21875 20.8281 7.21875" stroke="#45413C" stroke-width="0.5" stroke-linecap="round" stroke-linejoin="round"/>
<path d="M58.9885 72.6376C57.3237 72.6376 55.8892 72.2657 54.6849 71.5218C53.5161 70.7426 52.6129 69.7331 51.9753 68.4934C51.3377 67.2537 51.0189 65.9077 51.0189 64.4555C51.0189 61.6927 52.1524 59.5321 54.4193 57.9736C56.6862 56.3797 60.3699 55.3171 65.4704 54.7858C65.2578 52.944 64.0181 52.0231 61.7512 52.0231C60.7949 52.0231 59.7854 52.2179 58.7228 52.6075C57.6602 52.9617 56.4382 53.5107 55.0568 54.2545L51.869 48.3039C53.7463 47.1705 55.6413 46.3027 57.554 45.7006C59.5021 45.0984 61.5033 44.7973 63.5577 44.7973C67.0288 44.7973 69.7385 45.7891 71.6866 47.7726C73.6347 49.7207 74.6087 52.8731 74.6087 57.2298V72H67.1705L66.533 69.4498H66.3204C65.2578 70.4061 64.1244 71.1853 62.9201 71.7875C61.7512 72.3542 60.4407 72.6376 58.9885 72.6376ZM62.1763 65.6244C62.9201 65.6244 63.54 65.465 64.0358 65.1462C64.5317 64.792 65.0099 64.3493 65.4704 63.818V60.2051C63.3097 60.5239 61.8044 61.0021 60.9543 61.6396C60.1396 62.2772 59.7323 62.9679 59.7323 63.7117C59.7323 64.9868 60.547 65.6244 62.1763 65.6244Z" fill="white"/>
<path d="M54.6849 71.5218L54.1302 72.3539L54.1447 72.3635L54.1594 72.3726L54.6849 71.5218ZM51.9753 68.4934L51.086 68.9508L51.9753 68.4934ZM54.4193 57.9736L54.9858 58.7977L54.9945 58.7917L54.4193 57.9736ZM65.4704 54.7858L65.574 55.7804L66.5797 55.6757L66.4638 54.6712L65.4704 54.7858ZM58.7228 52.6075L59.0391 53.5562L59.0531 53.5515L59.0671 53.5464L58.7228 52.6075ZM55.0568 54.2545L54.1754 54.7267L54.6486 55.6101L55.5309 55.135L55.0568 54.2545ZM51.869 48.3039L51.3522 47.4479L50.539 47.9388L50.9875 48.7762L51.869 48.3039ZM57.554 45.7006L57.2586 44.7451L57.2537 44.7467L57.554 45.7006ZM71.6866 47.7726L70.9731 48.4734L70.9795 48.4797L71.6866 47.7726ZM74.6087 72V73H75.6087V72H74.6087ZM67.1705 72L66.2004 72.2425L66.3897 73H67.1705V72ZM66.533 69.4498L67.5031 69.2072L67.3137 68.4498H66.533V69.4498ZM66.3204 69.4498V68.4498H65.9367L65.6515 68.7065L66.3204 69.4498ZM62.9201 71.7875L63.3564 72.6874L63.3673 72.6819L62.9201 71.7875ZM64.0358 65.1462L64.5766 65.9874L64.5972 65.9742L64.6171 65.9599L64.0358 65.1462ZM65.4704 63.818L66.226 64.4729L66.4704 64.191V63.818H65.4704ZM65.4704 60.2051H66.4704V59.0467L65.3244 59.2158L65.4704 60.2051ZM60.9543 61.6396L60.3543 60.8396L60.3461 60.8458L60.338 60.8521L60.9543 61.6396ZM58.9885 71.6376C57.4762 71.6376 56.2308 71.3013 55.2104 70.671L54.1594 72.3726C55.5476 73.23 57.1712 73.6376 58.9885 73.6376V71.6376ZM55.2396 70.6898C54.2112 70.0042 53.4237 69.1232 52.8646 68.0361L51.086 68.9508C51.802 70.343 52.8209 71.481 54.1302 72.3539L55.2396 70.6898ZM52.8646 68.0361C52.3028 66.9438 52.0189 65.7555 52.0189 64.4555H50.0189C50.0189 66.06 50.3726 67.5636 51.086 68.9508L52.8646 68.0361ZM52.0189 64.4555C52.0189 62.0203 52.9917 60.1686 54.9858 58.7977L53.8527 57.1496C51.3131 58.8956 50.0189 61.3652 50.0189 64.4555H52.0189ZM54.9945 58.7917C57.0476 57.3481 60.5213 56.3068 65.574 55.7804L65.3668 53.7912C60.2184 54.3275 56.3248 55.4114 53.8441 57.1556L54.9945 58.7917ZM66.4638 54.6712C66.3327 53.5354 65.863 52.5688 64.9775 51.911C64.1214 51.275 63.0033 51.0231 61.7512 51.0231V53.0231C62.7661 53.0231 63.4013 53.2316 63.7849 53.5165C64.1391 53.7797 64.3955 54.1944 64.4769 54.9004L66.4638 54.6712ZM61.7512 51.0231C60.6581 51.0231 59.5317 51.2458 58.3786 51.6686L59.0671 53.5464C60.0392 53.1899 60.9317 53.0231 61.7512 53.0231V51.0231ZM58.4066 51.6588C57.2727 52.0368 55.9963 52.6129 54.5827 53.374L55.5309 55.135C56.8801 54.4085 58.0477 53.8866 59.0391 53.5562L58.4066 51.6588ZM55.9383 53.7823L52.7505 47.8317L50.9875 48.7762L54.1754 54.7267L55.9383 53.7823ZM52.3859 49.16C54.2014 48.0639 56.0241 47.2306 57.8542 46.6544L57.2537 44.7467C55.2585 45.3748 53.2912 46.2771 51.3522 47.4479L52.3859 49.16ZM57.8493 46.656C59.701 46.0836 61.6027 45.7973 63.5577 45.7973V43.7973C61.404 43.7973 59.3031 44.1132 57.2587 44.7452L57.8493 46.656ZM63.5577 45.7973C66.8312 45.7973 69.2574 46.7264 70.9731 48.4733L72.4 47.0719C70.2196 44.8518 67.2265 43.7973 63.5577 43.7973V45.7973ZM70.9795 48.4797C72.6559 50.1562 73.6087 52.9892 73.6087 57.2298H75.6087C75.6087 52.757 74.6135 49.2853 72.3937 47.0655L70.9795 48.4797ZM73.6087 57.2298V72H75.6087V57.2298H73.6087ZM74.6087 71H67.1705V73H74.6087V71ZM68.1407 71.7575L67.5031 69.2072L65.5628 69.6923L66.2004 72.2425L68.1407 71.7575ZM66.533 68.4498H66.3204V70.4498H66.533V68.4498ZM65.6515 68.7065C64.6515 69.6064 63.592 70.3335 62.4729 70.8931L63.3673 72.6819C64.6568 72.0372 65.8641 71.2058 66.9894 70.193L65.6515 68.7065ZM62.4838 70.8877C61.4663 71.381 60.3076 71.6376 58.9885 71.6376V73.6376C60.5738 73.6376 62.0362 73.3274 63.3564 72.6873L62.4838 70.8877ZM62.1763 66.6244C63.0619 66.6244 63.882 66.4339 64.5766 65.9874L63.4951 64.305C63.1979 64.4961 62.7783 64.6244 62.1763 64.6244V66.6244ZM64.6171 65.9599C65.1861 65.5535 65.7216 65.0549 66.226 64.4729L64.7147 63.163C64.2982 63.6436 63.8773 64.0305 63.4546 64.3325L64.6171 65.9599ZM66.4704 63.818V60.2051H64.4704V63.818H66.4704ZM65.3244 59.2158C63.1383 59.5383 61.4171 60.0425 60.3543 60.8396L61.5543 62.4396C62.1916 61.9616 63.4811 61.5094 65.6163 61.1944L65.3244 59.2158ZM60.338 60.8521C59.3814 61.6007 58.7323 62.5522 58.7323 63.7117H60.7323C60.7323 63.3835 60.8978 62.9536 61.5706 62.4271L60.338 60.8521ZM58.7323 63.7117C58.7323 64.5777 59.0213 65.3815 59.727 65.9337C60.386 66.4495 61.2586 66.6244 62.1763 66.6244V64.6244C61.4647 64.6244 61.1152 64.4805 60.9596 64.3587C60.8506 64.2734 60.7323 64.1208 60.7323 63.7117H58.7323Z" fill="#689159"/>
</g>
<path d="M14.7702 72.6376C12.6096 72.6376 10.3604 72.2302 8.02266 71.4156C5.68493 70.6009 3.57743 69.3612 1.70017 67.6965L6.90692 61.4271C8.14663 62.4189 9.47488 63.2335 10.8917 63.8711C12.3439 64.4732 13.7076 64.7743 14.9827 64.7743C16.3641 64.7743 17.3559 64.5618 17.958 64.1367C18.5956 63.7117 18.9143 63.1095 18.9143 62.3303C18.9143 61.5156 18.4893 60.8958 17.6392 60.4708C16.8246 60.0457 15.6911 59.5498 14.2389 58.9831L9.93534 57.1767C8.0935 56.4329 6.46417 55.264 5.04737 53.6701C3.66598 52.0762 2.97529 50.0395 2.97529 47.5601C2.97529 45.5766 3.5243 43.7879 4.62233 42.194C5.72035 40.5646 7.2257 39.2718 9.13839 38.3155C11.0865 37.3237 13.318 36.8278 15.8328 36.8278C17.8163 36.8278 19.8176 37.2174 21.8365 37.9967C23.8909 38.7405 25.715 39.8917 27.3089 41.4501L22.7397 47.1882C21.5709 46.3735 20.4374 45.7537 19.3394 45.3286C18.2768 44.9036 17.1079 44.6911 15.8328 44.6911C14.7348 44.6911 13.8493 44.8859 13.1763 45.2755C12.5387 45.6651 12.2199 46.2496 12.2199 47.0288C12.2199 47.8435 12.6804 48.481 13.6013 48.9415C14.5222 49.3665 15.762 49.8801 17.3204 50.4823L21.5177 52.1293C23.6784 52.9794 25.3431 54.166 26.512 55.689C27.6808 57.2121 28.2653 59.1779 28.2653 61.5865C28.2653 63.5346 27.734 65.3587 26.6714 67.0589C25.6442 68.7236 24.1211 70.0696 22.1022 71.0968C20.0832 72.124 17.6392 72.6376 14.7702 72.6376Z" fill="white"/>
<path d="M8.02266 71.4156L8.35173 70.4713L8.02266 71.4156ZM1.70017 67.6965L0.930877 67.0576L0.312349 67.8023L1.03668 68.4446L1.70017 67.6965ZM6.90692 61.4271L7.53162 60.6462L6.76493 60.0329L6.13764 60.7882L6.90692 61.4271ZM10.8917 63.8711L10.4813 64.783L10.4949 64.7891L10.5087 64.7948L10.8917 63.8711ZM17.958 64.1367L17.4033 63.3047L17.3922 63.3121L17.3813 63.3198L17.958 64.1367ZM17.6392 60.4707L17.1767 61.3573L17.1843 61.3613L17.192 61.3652L17.6392 60.4707ZM14.2389 58.9831L13.8518 59.9052L13.8635 59.9101L13.8753 59.9147L14.2389 58.9831ZM9.93534 57.1767L10.3224 56.2545L10.3098 56.2494L9.93534 57.1767ZM5.04737 53.6701L4.29162 54.3251L4.29996 54.3344L5.04737 53.6701ZM4.62233 42.194L5.44588 42.7613L5.45159 42.7528L4.62233 42.194ZM9.13839 38.3155L9.58562 39.2099L9.59208 39.2066L9.13839 38.3155ZM21.8365 37.9967L21.4764 38.9296L21.4862 38.9334L21.4961 38.9369L21.8365 37.9967ZM27.3089 41.4501L28.0912 42.0731L28.6538 41.3665L28.008 40.7351L27.3089 41.4501ZM22.7397 47.1882L22.1679 48.0086L22.9376 48.545L23.522 47.8111L22.7397 47.1882ZM19.3394 45.3286L18.968 46.2572L18.9784 46.2612L19.3394 45.3286ZM13.1763 45.2755L12.6753 44.4101L12.665 44.416L12.6548 44.4222L13.1763 45.2755ZM13.6013 48.9415L13.1541 49.8359L13.1681 49.8429L13.1823 49.8495L13.6013 48.9415ZM17.3204 50.4823L17.6857 49.5514L17.6808 49.5495L17.3204 50.4823ZM21.5177 52.1293L21.8838 51.1987L21.883 51.1984L21.5177 52.1293ZM26.512 55.689L27.3053 55.0802L26.512 55.689ZM26.6714 67.0589L25.8233 66.5289L25.8203 66.5338L26.6714 67.0589ZM22.1022 71.0968L21.6487 70.2055L22.1022 71.0968ZM14.7702 71.6376C12.7366 71.6376 10.5988 71.2543 8.35173 70.4713L7.69358 72.3599C10.1219 73.2061 12.4825 73.6376 14.7702 73.6376V71.6376ZM8.35173 70.4713C6.1389 69.7001 4.14466 68.5277 2.36365 66.9483L1.03668 68.4446C3.0102 70.1947 5.23096 71.5017 7.69358 72.3599L8.35173 70.4713ZM2.46945 68.3354L7.67621 62.066L6.13764 60.7882L0.930877 67.0576L2.46945 68.3354ZM6.28223 62.208C7.58614 63.2511 8.98618 64.1102 10.4813 64.783L11.3021 62.9592C9.96358 62.3568 8.70712 61.5866 7.53162 60.6462L6.28223 62.208ZM10.5087 64.7948C12.0549 65.4359 13.5494 65.7743 14.9827 65.7743V63.7743C13.8658 63.7743 12.6329 63.5105 11.2747 62.9473L10.5087 64.7948ZM14.9827 65.7743C16.4158 65.7743 17.6707 65.5636 18.5347 64.9537L17.3813 63.3198C17.041 63.56 16.3124 63.7743 14.9827 63.7743V65.7743ZM18.5127 64.9688C19.4341 64.3545 19.9143 63.4371 19.9143 62.3303H17.9143C17.9143 62.782 17.757 63.0689 17.4033 63.3047L18.5127 64.9688ZM19.9143 62.3303C19.9143 61.7389 19.7566 61.1794 19.4203 60.6889C19.0897 60.2068 18.6238 59.845 18.0864 59.5763L17.192 61.3652C17.5047 61.5215 17.6764 61.6822 17.7708 61.82C17.8595 61.9493 17.9143 62.1071 17.9143 62.3303H19.9143ZM18.1018 59.5842C17.2405 59.1348 16.0687 58.6237 14.6024 58.0515L13.8753 59.9147C15.3135 60.4759 16.4087 60.9566 17.1767 61.3573L18.1018 59.5842ZM14.6259 58.061L10.3224 56.2546L9.54831 58.0987L13.8518 59.9052L14.6259 58.061ZM10.3098 56.2494C8.62125 55.5675 7.11689 54.4931 5.79478 53.0057L4.29996 54.3344C5.81146 56.0349 7.56575 57.2982 9.56088 58.1039L10.3098 56.2494ZM5.80306 53.0152C4.60615 51.6341 3.97529 49.8435 3.97529 47.5601H1.97529C1.97529 50.2356 2.72582 52.5183 4.29168 54.325L5.80306 53.0152ZM3.97529 47.5601C3.97529 45.7738 4.46576 44.184 5.44583 42.7613L3.79882 41.6267C2.58285 43.3918 1.97529 45.3793 1.97529 47.5601H3.97529ZM5.45159 42.7528C6.44492 41.2789 7.81305 40.0962 9.5856 39.2099L8.69118 37.421C6.63836 38.4474 4.99578 39.8504 3.79306 41.6351L5.45159 42.7528ZM9.59208 39.2066C11.3799 38.2965 13.4519 37.8278 15.8328 37.8278V35.8278C13.1841 35.8278 10.7931 36.3509 8.68471 37.4243L9.59208 39.2066ZM15.8328 37.8278C17.6824 37.8278 19.5619 38.1907 21.4764 38.9296L22.1966 37.0638C20.0732 36.2442 17.9502 35.8278 15.8328 35.8278V37.8278ZM21.4961 38.9369C23.4134 39.6311 25.1159 40.7044 26.6098 42.1651L28.008 40.7351C26.3142 39.0789 24.3684 37.8499 22.1769 37.0564L21.4961 38.9369ZM26.5266 40.8272L21.9574 46.5653L23.522 47.8111L28.0912 42.0731L26.5266 40.8272ZM23.3115 46.3678C22.0903 45.5167 20.8865 44.8552 19.7004 44.3961L18.9784 46.2612C19.9883 46.6521 21.0514 47.2304 22.1679 48.0086L23.3115 46.3678ZM19.7108 44.4002C18.5173 43.9228 17.2206 43.6911 15.8328 43.6911V45.6911C16.9952 45.6911 18.0363 45.8844 18.968 46.2571L19.7108 44.4002ZM15.8328 43.6911C14.6275 43.6911 13.5506 43.9033 12.6753 44.4101L13.6773 46.1409C14.148 45.8685 14.842 45.6911 15.8328 45.6911V43.6911ZM12.6548 44.4222C11.7048 45.0028 11.2199 45.9194 11.2199 47.0288H13.2199C13.2199 46.5797 13.3726 46.3275 13.6977 46.1288L12.6548 44.4222ZM11.2199 47.0288C11.2199 48.3283 12.001 49.2594 13.1541 49.8359L14.0485 48.0471C13.3598 47.7027 13.2199 47.3586 13.2199 47.0288H11.2199ZM13.1823 49.8495C14.1308 50.2872 15.3926 50.8095 16.96 51.4151L17.6808 49.5495C16.1313 48.9508 14.9137 48.4459 14.0204 48.0335L13.1823 49.8495ZM16.9552 51.4132L21.1524 53.0602L21.883 51.1984L17.6857 49.5514L16.9552 51.4132ZM21.1516 53.0599C23.1787 53.8574 24.6814 54.9463 25.7187 56.2979L27.3053 55.0802C26.0048 53.3856 24.178 52.1014 21.8838 51.1987L21.1516 53.0599ZM25.7187 56.2979C26.7225 57.6059 27.2653 59.3411 27.2653 61.5865H29.2653C29.2653 59.0147 28.6392 56.8183 27.3053 55.0802L25.7187 56.2979ZM27.2653 61.5865C27.2653 63.3415 26.7897 64.9828 25.8234 66.5289L27.5194 67.5889C28.6782 65.7347 29.2653 63.7277 29.2653 61.5865H27.2653ZM25.8203 66.5338C24.9039 68.019 23.5303 69.2482 21.6487 70.2055L22.5556 71.9881C24.7119 70.891 26.3844 69.4283 27.5224 67.584L25.8203 66.5338ZM21.6487 70.2055C19.8026 71.1447 17.5225 71.6376 14.7702 71.6376V73.6376C17.7559 73.6376 20.3638 73.1032 22.5556 71.9881L21.6487 70.2055Z" fill="#689159"/>
<path d="M79.0816 81.3509V45.4349H86.5198L87.1573 47.8789H87.3699C88.3616 46.958 89.4774 46.2142 90.7171 45.6474C91.9922 45.0807 93.285 44.7973 94.5956 44.7973C96.6854 44.7973 98.4918 45.3641 100.015 46.4975C101.573 47.5955 102.778 49.154 103.628 51.173C104.478 53.1919 104.903 55.5651 104.903 58.2924C104.903 61.3385 104.372 63.9419 103.309 66.1025C102.246 68.2278 100.865 69.8571 99.1648 70.9905C97.5 72.0886 95.729 72.6376 93.8517 72.6376C91.6557 72.6376 89.6722 71.7521 87.9012 69.9811L88.2199 74.0189V81.3509H79.0816ZM91.6203 65.1993C92.6829 65.1993 93.6038 64.7035 94.383 63.7117C95.1623 62.7199 95.5519 60.9489 95.5519 58.3987C95.5519 56.2026 95.2331 54.6264 94.5956 53.6701C93.9934 52.7137 93.0725 52.2356 91.8328 52.2356C91.1598 52.2356 90.54 52.3773 89.9732 52.6606C89.4065 52.944 88.8221 53.4399 88.2199 54.1483V63.9242C88.7512 64.3847 89.3003 64.7212 89.867 64.9337C90.4691 65.1108 91.0536 65.1993 91.6203 65.1993ZM118.083 72.6376C116.029 72.6376 114.4 72.2302 113.195 71.4156C112.026 70.5655 111.176 69.3966 110.645 67.909C110.149 66.3859 109.901 64.6326 109.901 62.6491V35.0214H119.04V62.9679C119.04 63.8534 119.199 64.4732 119.518 64.8274C119.872 65.1462 120.208 65.3056 120.527 65.3056C120.704 65.3056 120.846 65.3056 120.952 65.3056C121.094 65.2702 121.271 65.2348 121.484 65.1993L122.546 71.8937C122.086 72.1063 121.484 72.2834 120.74 72.425C119.996 72.5667 119.11 72.6376 118.083 72.6376ZM138.052 72.6376C135.467 72.6376 133.129 72.0886 131.039 70.9905C128.985 69.8925 127.355 68.3163 126.151 66.2619C124.947 64.1722 124.345 61.6573 124.345 58.7175C124.345 55.8484 124.947 53.3867 126.151 51.3324C127.391 49.2426 128.985 47.631 130.933 46.4975C132.881 45.3641 134.935 44.7973 137.096 44.7973C139.717 44.7973 141.878 45.3818 143.578 46.5506C145.313 47.6841 146.589 49.2249 147.403 51.173C148.253 53.1211 148.678 55.2817 148.678 57.6549C148.678 58.4341 148.625 59.1956 148.519 59.9394C148.448 60.6479 148.377 61.1614 148.306 61.4802H133.164C133.589 63.0741 134.351 64.1899 135.449 64.8274C136.547 65.4296 137.84 65.7306 139.327 65.7306C141.028 65.7306 142.834 65.1993 144.747 64.1367L147.722 69.556C146.305 70.5478 144.711 71.3093 142.94 71.8406C141.169 72.3719 139.54 72.6376 138.052 72.6376ZM133.058 55.5296H140.921C140.921 54.5025 140.656 53.617 140.124 52.8731C139.629 52.0939 138.69 51.7043 137.308 51.7043C136.317 51.7043 135.431 52.0053 134.652 52.6075C133.873 53.2096 133.341 54.1837 133.058 55.5296Z" fill="white"/>
<path d="M79.0816 81.3509H78.0816V82.3509H79.0816V81.3509ZM79.0816 45.4349V44.4349H78.0816V45.4349H79.0816ZM86.5198 45.4349L87.4874 45.1825L87.2924 44.4349H86.5198V45.4349ZM87.1573 47.8789L86.1897 48.1313L86.3847 48.8789H87.1573V47.8789ZM87.3699 47.8789V48.8789H87.7625L88.0503 48.6117L87.3699 47.8789ZM90.7171 45.6474L90.3109 44.7336L90.3013 44.738L90.7171 45.6474ZM100.015 46.4975L99.4178 47.2997L99.4283 47.3075L99.4389 47.315L100.015 46.4975ZM103.628 51.173L104.549 50.7849V50.7849L103.628 51.173ZM103.309 66.1026L104.203 66.5498L104.206 66.5439L103.309 66.1026ZM99.1648 70.9905L99.7154 71.8253L99.7195 71.8226L99.1648 70.9905ZM87.9012 69.9811L88.6083 69.2739L86.6909 67.3565L86.9043 70.0598L87.9012 69.9811ZM88.2199 74.0189H89.2199V73.9795L89.2168 73.9402L88.2199 74.0189ZM88.2199 81.3509V82.3509H89.2199V81.3509H88.2199ZM94.383 63.7117L95.1694 64.3295L94.383 63.7117ZM94.5956 53.6701L93.7493 54.2029L93.7563 54.2139L93.7635 54.2248L94.5956 53.6701ZM89.9732 52.6606L89.526 51.7662H89.526L89.9732 52.6606ZM88.2199 54.1483L87.458 53.5006L87.2199 53.7807V54.1483H88.2199ZM88.2199 63.9242H87.2199V64.3808L87.565 64.6799L88.2199 63.9242ZM89.867 64.9337L89.5159 65.87L89.5499 65.8828L89.5848 65.8931L89.867 64.9337ZM80.0816 81.3509V45.4349H78.0816V81.3509H80.0816ZM79.0816 46.4349H86.5198V44.4349H79.0816V46.4349ZM85.5522 45.6873L86.1897 48.1313L88.125 47.6265L87.4874 45.1825L85.5522 45.6873ZM87.1573 48.8789H87.3699V46.8789H87.1573V48.8789ZM88.0503 48.6117C88.9633 47.7639 89.9895 47.0796 91.1328 46.5569L90.3013 44.738C88.9652 45.3487 87.76 46.152 86.6894 47.1461L88.0503 48.6117ZM91.1232 46.5612C92.2789 46.0476 93.4339 45.7973 94.5956 45.7973V43.7973C93.1362 43.7973 91.7055 44.1138 90.3109 44.7336L91.1232 46.5612ZM94.5956 45.7973C96.4931 45.7973 98.0848 46.3077 99.4178 47.2997L100.612 45.6953C98.8988 44.4204 96.8776 43.7973 94.5956 43.7973V45.7973ZM99.4389 47.315C100.822 48.2898 101.918 49.6885 102.706 51.561L104.549 50.7849C103.638 48.6196 102.324 46.9013 100.591 45.68L99.4389 47.315ZM102.706 51.561C103.493 53.431 103.903 55.6667 103.903 58.2924H105.903C105.903 55.4634 105.462 52.9528 104.549 50.7849L102.706 51.561ZM103.903 58.2924C103.903 61.225 103.391 63.6694 102.412 65.6612L104.206 66.5439C105.352 64.2145 105.903 61.4521 105.903 58.2924H103.903ZM102.414 65.6553C101.417 67.6505 100.143 69.1363 98.6101 70.1585L99.7195 71.8226C101.587 70.5779 103.076 68.805 104.203 66.5498L102.414 65.6553ZM98.6142 70.1558C97.1021 71.1531 95.5208 71.6376 93.8517 71.6376V73.6376C95.9372 73.6376 97.8979 73.024 99.7154 71.8253L98.6142 70.1558ZM93.8517 71.6376C91.9588 71.6376 90.2204 70.8861 88.6083 69.2739L87.1941 70.6882C89.124 72.6181 91.3525 73.6376 93.8517 73.6376V71.6376ZM86.9043 70.0598L87.223 74.0976L89.2168 73.9402L88.8981 69.9024L86.9043 70.0598ZM87.2199 74.0189V81.3509H89.2199V74.0189H87.2199ZM88.2199 80.3509H79.0816V82.3509H88.2199V80.3509ZM91.6203 66.1993C93.0487 66.1993 94.2402 65.5121 95.1694 64.3295L93.5967 63.0939C92.9674 63.8948 92.3171 64.1993 91.6203 64.1993V66.1993ZM95.1694 64.3295C96.1712 63.0544 96.5519 60.9815 96.5519 58.3987H94.5519C94.5519 60.9164 94.1533 62.3854 93.5967 63.0939L95.1694 64.3295ZM96.5519 58.3987C96.5519 56.1571 96.2362 54.3282 95.4276 53.1154L93.7635 54.2248C94.2301 54.9246 94.5519 56.2482 94.5519 58.3987H96.5519ZM95.4418 53.1373C94.6363 51.858 93.3763 51.2356 91.8328 51.2356V53.2356C92.7687 53.2356 93.3505 53.5695 93.7493 54.2029L95.4418 53.1373ZM91.8328 51.2356C91.0145 51.2356 90.2402 51.4091 89.526 51.7662L90.4205 53.555C90.8397 53.3454 91.3052 53.2356 91.8328 53.2356V51.2356ZM89.526 51.7662C88.7963 52.1311 88.1101 52.7334 87.458 53.5006L88.9819 54.7959C89.5341 54.1463 90.0168 53.7569 90.4205 53.555L89.526 51.7662ZM87.2199 54.1483V63.9242H89.2199V54.1483H87.2199ZM87.565 64.6799C88.1718 65.2058 88.8216 65.6096 89.5159 65.87L90.2181 63.9974C89.779 63.8327 89.3307 63.5636 88.8749 63.1685L87.565 64.6799ZM89.5848 65.8931C90.2689 66.0942 90.9484 66.1993 91.6203 66.1993V64.1993C91.1587 64.1993 90.6694 64.1273 90.1491 63.9743L89.5848 65.8931ZM113.195 71.4156L112.607 72.2243L112.621 72.2343L112.635 72.2439L113.195 71.4156ZM110.645 67.909L109.694 68.2186L109.699 68.232L109.703 68.2453L110.645 67.909ZM109.901 35.0214V34.0214H108.901V35.0214H109.901ZM119.04 35.0214H120.04V34.0214H119.04V35.0214ZM119.518 64.8274L118.774 65.4964L118.81 65.5355L118.849 65.5707L119.518 64.8274ZM120.952 65.3056V66.3056H121.075L121.195 66.2757L120.952 65.3056ZM121.484 65.1993L122.471 65.0426L122.313 64.0473L121.319 64.2129L121.484 65.1993ZM122.546 71.8937L122.965 72.8017L123.652 72.4845L123.534 71.737L122.546 71.8937ZM120.74 72.425L120.927 73.4074L120.74 72.425ZM118.083 71.6376C116.149 71.6376 114.739 71.2526 113.756 70.5873L112.635 72.2439C114.06 73.2079 115.908 73.6376 118.083 73.6376V71.6376ZM113.783 70.6068C112.792 69.8861 112.057 68.8893 111.587 67.5726L109.703 68.2453C110.296 69.904 111.26 71.2449 112.607 72.2243L113.783 70.6068ZM111.596 67.5994C111.139 66.1968 110.901 64.5515 110.901 62.6491H108.901C108.901 64.7137 109.159 66.575 109.694 68.2186L111.596 67.5994ZM110.901 62.6491V35.0214H108.901V62.6491H110.901ZM109.901 36.0214H119.04V34.0214H109.901V36.0214ZM118.04 35.0214V62.9679H120.04V35.0214H118.04ZM118.04 62.9679C118.04 63.9125 118.197 64.8552 118.774 65.4964L120.261 64.1585C120.201 64.0912 120.04 63.7943 120.04 62.9679H118.04ZM118.849 65.5707C119.298 65.9751 119.864 66.3056 120.527 66.3056V64.3056C120.553 64.3056 120.446 64.3173 120.187 64.0841L118.849 65.5707ZM120.527 66.3056C120.528 66.3056 120.528 66.3056 120.528 66.3056C120.529 66.3056 120.529 66.3056 120.529 66.3056C120.53 66.3056 120.53 66.3056 120.53 66.3056C120.531 66.3056 120.531 66.3056 120.531 66.3056C120.532 66.3056 120.532 66.3056 120.532 66.3056C120.533 66.3056 120.533 66.3056 120.533 66.3056C120.534 66.3056 120.534 66.3056 120.534 66.3056C120.535 66.3056 120.535 66.3056 120.536 66.3056C120.536 66.3056 120.536 66.3056 120.537 66.3056C120.537 66.3056 120.537 66.3056 120.538 66.3056C120.538 66.3056 120.538 66.3056 120.539 66.3056C120.539 66.3056 120.539 66.3056 120.54 66.3056C120.54 66.3056 120.54 66.3056 120.541 66.3056C120.541 66.3056 120.541 66.3056 120.542 66.3056C120.542 66.3056 120.542 66.3056 120.543 66.3056C120.543 66.3056 120.543 66.3056 120.544 66.3056C120.544 66.3056 120.544 66.3056 120.545 66.3056C120.545 66.3056 120.545 66.3056 120.546 66.3056C120.546 66.3056 120.546 66.3056 120.547 66.3056C120.547 66.3056 120.547 66.3056 120.548 66.3056C120.548 66.3056 120.549 66.3056 120.549 66.3056C120.549 66.3056 120.55 66.3056 120.55 66.3056C120.55 66.3056 120.551 66.3056 120.551 66.3056C120.551 66.3056 120.552 66.3056 120.552 66.3056C120.552 66.3056 120.553 66.3056 120.553 66.3056C120.553 66.3056 120.554 66.3056 120.554 66.3056C120.554 66.3056 120.555 66.3056 120.555 66.3056C120.555 66.3056 120.556 66.3056 120.556 66.3056C120.556 66.3056 120.557 66.3056 120.557 66.3056C120.557 66.3056 120.558 66.3056 120.558 66.3056C120.558 66.3056 120.559 66.3056 120.559 66.3056C120.559 66.3056 120.56 66.3056 120.56 66.3056C120.56 66.3056 120.561 66.3056 120.561 66.3056C120.561 66.3056 120.562 66.3056 120.562 66.3056C120.562 66.3056 120.563 66.3056 120.563 66.3056C120.563 66.3056 120.564 66.3056 120.564 66.3056C120.564 66.3056 120.565 66.3056 120.565 66.3056C120.565 66.3056 120.566 66.3056 120.566 66.3056C120.566 66.3056 120.567 66.3056 120.567 66.3056C120.567 66.3056 120.568 66.3056 120.568 66.3056C120.568 66.3056 120.569 66.3056 120.569 66.3056C120.569 66.3056 120.57 66.3056 120.57 66.3056C120.57 66.3056 120.571 66.3056 120.571 66.3056C120.571 66.3056 120.572 66.3056 120.572 66.3056C120.572 66.3056 120.573 66.3056 120.573 66.3056C120.573 66.3056 120.574 66.3056 120.574 66.3056C120.574 66.3056 120.575 66.3056 120.575 66.3056C120.575 66.3056 120.576 66.3056 120.576 66.3056C120.576 66.3056 120.577 66.3056 120.577 66.3056C120.577 66.3056 120.578 66.3056 120.578 66.3056C120.578 66.3056 120.579 66.3056 120.579 66.3056C120.579 66.3056 120.58 66.3056 120.58 66.3056C120.58 66.3056 120.581 66.3056 120.581 66.3056C120.581 66.3056 120.582 66.3056 120.582 66.3056C120.582 66.3056 120.583 66.3056 120.583 66.3056C120.583 66.3056 120.584 66.3056 120.584 66.3056C120.584 66.3056 120.585 66.3056 120.585 66.3056C120.585 66.3056 120.586 66.3056 120.586 66.3056C120.586 66.3056 120.587 66.3056 120.587 66.3056C120.587 66.3056 120.588 66.3056 120.588 66.3056C120.588 66.3056 120.589 66.3056 120.589 66.3056C120.589 66.3056 120.59 66.3056 120.59 66.3056C120.59 66.3056 120.591 66.3056 120.591 66.3056C120.591 66.3056 120.592 66.3056 120.592 66.3056C120.592 66.3056 120.593 66.3056 120.593 66.3056C120.593 66.3056 120.594 66.3056 120.594 66.3056C120.594 66.3056 120.595 66.3056 120.595 66.3056C120.595 66.3056 120.596 66.3056 120.596 66.3056C120.596 66.3056 120.597 66.3056 120.597 66.3056C120.597 66.3056 120.598 66.3056 120.598 66.3056C120.598 66.3056 120.599 66.3056 120.599 66.3056C120.599 66.3056 120.6 66.3056 120.6 66.3056C120.6 66.3056 120.601 66.3056 120.601 66.3056C120.601 66.3056 120.601 66.3056 120.602 66.3056C120.602 66.3056 120.602 66.3056 120.603 66.3056C120.603 66.3056 120.603 66.3056 120.604 66.3056C120.604 66.3056 120.604 66.3056 120.605 66.3056C120.605 66.3056 120.605 66.3056 120.606 66.3056C120.606 66.3056 120.606 66.3056 120.607 66.3056C120.607 66.3056 120.607 66.3056 120.608 66.3056C120.608 66.3056 120.608 66.3056 120.609 66.3056C120.609 66.3056 120.609 66.3056 120.61 66.3056C120.61 66.3056 120.61 66.3056 120.611 66.3056C120.611 66.3056 120.611 66.3056 120.612 66.3056C120.612 66.3056 120.612 66.3056 120.613 66.3056C120.613 66.3056 120.613 66.3056 120.613 66.3056C120.614 66.3056 120.614 66.3056 120.614 66.3056C120.615 66.3056 120.615 66.3056 120.615 66.3056C120.616 66.3056 120.616 66.3056 120.616 66.3056C120.617 66.3056 120.617 66.3056 120.617 66.3056C120.618 66.3056 120.618 66.3056 120.618 66.3056C120.619 66.3056 120.619 66.3056 120.619 66.3056C120.62 66.3056 120.62 66.3056 120.62 66.3056C120.621 66.3056 120.621 66.3056 120.621 66.3056C120.622 66.3056 120.622 66.3056 120.622 66.3056C120.622 66.3056 120.623 66.3056 120.623 66.3056C120.623 66.3056 120.624 66.3056 120.624 66.3056C120.624 66.3056 120.625 66.3056 120.625 66.3056C120.625 66.3056 120.626 66.3056 120.626 66.3056C120.626 66.3056 120.627 66.3056 120.627 66.3056C120.627 66.3056 120.628 66.3056 120.628 66.3056C120.628 66.3056 120.629 66.3056 120.629 66.3056C120.629 66.3056 120.63 66.3056 120.63 66.3056C120.63 66.3056 120.63 66.3056 120.631 66.3056C120.631 66.3056 120.631 66.3056 120.632 66.3056C120.632 66.3056 120.632 66.3056 120.633 66.3056C120.633 66.3056 120.633 66.3056 120.634 66.3056C120.634 66.3056 120.634 66.3056 120.635 66.3056C120.635 66.3056 120.635 66.3056 120.636 66.3056C120.636 66.3056 120.636 66.3056 120.636 66.3056C120.637 66.3056 120.637 66.3056 120.637 66.3056C120.638 66.3056 120.638 66.3056 120.638 66.3056C120.639 66.3056 120.639 66.3056 120.639 66.3056C120.64 66.3056 120.64 66.3056 120.64 66.3056C120.641 66.3056 120.641 66.3056 120.641 66.3056C120.642 66.3056 120.642 66.3056 120.642 66.3056C120.642 66.3056 120.643 66.3056 120.643 66.3056C120.643 66.3056 120.644 66.3056 120.644 66.3056C120.644 66.3056 120.645 66.3056 120.645 66.3056C120.645 66.3056 120.646 66.3056 120.646 66.3056C120.646 66.3056 120.647 66.3056 120.647 66.3056C120.647 66.3056 120.647 66.3056 120.648 66.3056C120.648 66.3056 120.648 66.3056 120.649 66.3056C120.649 66.3056 120.649 66.3056 120.65 66.3056C120.65 66.3056 120.65 66.3056 120.651 66.3056C120.651 66.3056 120.651 66.3056 120.652 66.3056C120.652 66.3056 120.652 66.3056 120.652 66.3056C120.653 66.3056 120.653 66.3056 120.653 66.3056C120.654 66.3056 120.654 66.3056 120.654 66.3056C120.655 66.3056 120.655 66.3056 120.655 66.3056C120.656 66.3056 120.656 66.3056 120.656 66.3056C120.657 66.3056 120.657 66.3056 120.657 66.3056C120.657 66.3056 120.658 66.3056 120.658 66.3056C120.658 66.3056 120.659 66.3056 120.659 66.3056C120.659 66.3056 120.66 66.3056 120.66 66.3056C120.66 66.3056 120.661 66.3056 120.661 66.3056C120.661 66.3056 120.661 66.3056 120.662 66.3056C120.662 66.3056 120.662 66.3056 120.663 66.3056C120.663 66.3056 120.663 66.3056 120.664 66.3056C120.664 66.3056 120.664 66.3056 120.665 66.3056C120.665 66.3056 120.665 66.3056 120.665 66.3056C120.666 66.3056 120.666 66.3056 120.666 66.3056C120.667 66.3056 120.667 66.3056 120.667 66.3056C120.668 66.3056 120.668 66.3056 120.668 66.3056C120.669 66.3056 120.669 66.3056 120.669 66.3056C120.669 66.3056 120.67 66.3056 120.67 66.3056C120.67 66.3056 120.671 66.3056 120.671 66.3056C120.671 66.3056 120.672 66.3056 120.672 66.3056C120.672 66.3056 120.673 66.3056 120.673 66.3056C120.673 66.3056 120.673 66.3056 120.674 66.3056C120.674 66.3056 120.674 66.3056 120.675 66.3056C120.675 66.3056 120.675 66.3056 120.676 66.3056C120.676 66.3056 120.676 66.3056 120.677 66.3056C120.677 66.3056 120.677 66.3056 120.677 66.3056C120.678 66.3056 120.678 66.3056 120.678 66.3056C120.679 66.3056 120.679 66.3056 120.679 66.3056C120.68 66.3056 120.68 66.3056 120.68 66.3056C120.68 66.3056 120.681 66.3056 120.681 66.3056C120.681 66.3056 120.682 66.3056 120.682 66.3056C120.682 66.3056 120.683 66.3056 120.683 66.3056C120.683 66.3056 120.684 66.3056 120.684 66.3056C120.684 66.3056 120.684 66.3056 120.685 66.3056C120.685 66.3056 120.685 66.3056 120.686 66.3056C120.686 66.3056 120.686 66.3056 120.687 66.3056C120.687 66.3056 120.687 66.3056 120.687 66.3056C120.688 66.3056 120.688 66.3056 120.688 66.3056C120.689 66.3056 120.689 66.3056 120.689 66.3056C120.69 66.3056 120.69 66.3056 120.69 66.3056C120.69 66.3056 120.691 66.3056 120.691 66.3056C120.691 66.3056 120.692 66.3056 120.692 66.3056C120.692 66.3056 120.693 66.3056 120.693 66.3056C120.693 66.3056 120.693 66.3056 120.694 66.3056C120.694 66.3056 120.694 66.3056 120.695 66.3056C120.695 66.3056 120.695 66.3056 120.696 66.3056C120.696 66.3056 120.696 66.3056 120.696 66.3056C120.697 66.3056 120.697 66.3056 120.697 66.3056C120.698 66.3056 120.698 66.3056 120.698 66.3056C120.699 66.3056 120.699 66.3056 120.699 66.3056C120.699 66.3056 120.7 66.3056 120.7 66.3056C120.7 66.3056 120.701 66.3056 120.701 66.3056C120.701 66.3056 120.701 66.3056 120.702 66.3056C120.702 66.3056 120.702 66.3056 120.703 66.3056C120.703 66.3056 120.703 66.3056 120.704 66.3056C120.704 66.3056 120.704 66.3056 120.704 66.3056C120.705 66.3056 120.705 66.3056 120.705 66.3056C120.706 66.3056 120.706 66.3056 120.706 66.3056C120.707 66.3056 120.707 66.3056 120.707 66.3056C120.707 66.3056 120.708 66.3056 120.708 66.3056C120.708 66.3056 120.709 66.3056 120.709 66.3056C120.709 66.3056 120.709 66.3056 120.71 66.3056C120.71 66.3056 120.71 66.3056 120.711 66.3056C120.711 66.3056 120.711 66.3056 120.712 66.3056C120.712 66.3056 120.712 66.3056 120.712 66.3056C120.713 66.3056 120.713 66.3056 120.713 66.3056C120.714 66.3056 120.714 66.3056 120.714 66.3056C120.714 66.3056 120.715 66.3056 120.715 66.3056C120.715 66.3056 120.716 66.3056 120.716 66.3056C120.716 66.3056 120.717 66.3056 120.717 66.3056C120.717 66.3056 120.717 66.3056 120.718 66.3056C120.718 66.3056 120.718 66.3056 120.719 66.3056C120.719 66.3056 120.719 66.3056 120.719 66.3056C120.72 66.3056 120.72 66.3056 120.72 66.3056C120.721 66.3056 120.721 66.3056 120.721 66.3056C120.721 66.3056 120.722 66.3056 120.722 66.3056C120.722 66.3056 120.723 66.3056 120.723 66.3056C120.723 66.3056 120.724 66.3056 120.724 66.3056C120.724 66.3056 120.724 66.3056 120.725 66.3056C120.725 66.3056 120.725 66.3056 120.726 66.3056C120.726 66.3056 120.726 66.3056 120.726 66.3056C120.727 66.3056 120.727 66.3056 120.727 66.3056C120.728 66.3056 120.728 66.3056 120.728 66.3056C120.728 66.3056 120.729 66.3056 120.729 66.3056C120.729 66.3056 120.73 66.3056 120.73 66.3056C120.73 66.3056 120.73 66.3056 120.731 66.3056C120.731 66.3056 120.731 66.3056 120.732 66.3056C120.732 66.3056 120.732 66.3056 120.732 66.3056C120.733 66.3056 120.733 66.3056 120.733 66.3056C120.734 66.3056 120.734 66.3056 120.734 66.3056C120.734 66.3056 120.735 66.3056 120.735 66.3056C120.735 66.3056 120.736 66.3056 120.736 66.3056C120.736 66.3056 120.736 66.3056 120.737 66.3056C120.737 66.3056 120.737 66.3056 120.738 66.3056C120.738 66.3056 120.738 66.3056 120.738 66.3056C120.739 66.3056 120.739 66.3056 120.739 66.3056C120.74 66.3056 120.74 66.3056 120.74 66.3056C120.74 66.3056 120.741 66.3056 120.741 66.3056C120.741 66.3056 120.742 66.3056 120.742 66.3056C120.742 66.3056 120.742 66.3056 120.743 66.3056C120.743 66.3056 120.743 66.3056 120.744 66.3056C120.744 66.3056 120.744 66.3056 120.744 66.3056C120.745 66.3056 120.745 66.3056 120.745 66.3056C120.746 66.3056 120.746 66.3056 120.746 66.3056C120.746 66.3056 120.747 66.3056 120.747 66.3056C120.747 66.3056 120.748 66.3056 120.748 66.3056C120.748 66.3056 120.748 66.3056 120.749 66.3056C120.749 66.3056 120.749 66.3056 120.75 66.3056C120.75 66.3056 120.75 66.3056 120.75 66.3056C120.751 66.3056 120.751 66.3056 120.751 66.3056C120.752 66.3056 120.752 66.3056 120.752 66.3056C120.752 66.3056 120.753 66.3056 120.753 66.3056C120.753 66.3056 120.754 66.3056 120.754 66.3056C120.754 66.3056 120.754 66.3056 120.755 66.3056C120.755 66.3056 120.755 66.3056 120.755 66.3056C120.756 66.3056 120.756 66.3056 120.756 66.3056C120.757 66.3056 120.757 66.3056 120.757 66.3056C120.757 66.3056 120.758 66.3056 120.758 66.3056C120.758 66.3056 120.759 66.3056 120.759 66.3056C120.759 66.3056 120.759 66.3056 120.76 66.3056C120.76 66.3056 120.76 66.3056 120.76 66.3056C120.761 66.3056 120.761 66.3056 120.761 66.3056C120.762 66.3056 120.762 66.3056 120.762 66.3056C120.762 66.3056 120.763 66.3056 120.763 66.3056C120.763 66.3056 120.764 66.3056 120.764 66.3056C120.764 66.3056 120.764 66.3056 120.765 66.3056C120.765 66.3056 120.765 66.3056 120.765 66.3056C120.766 66.3056 120.766 66.3056 120.766 66.3056C120.767 66.3056 120.767 66.3056 120.767 66.3056C120.767 66.3056 120.768 66.3056 120.768 66.3056C120.768 66.3056 120.769 66.3056 120.769 66.3056C120.769 66.3056 120.769 66.3056 120.77 66.3056C120.77 66.3056 120.77 66.3056 120.77 66.3056C120.771 66.3056 120.771 66.3056 120.771 66.3056C120.772 66.3056 120.772 66.3056 120.772 66.3056C120.772 66.3056 120.773 66.3056 120.773 66.3056C120.773 66.3056 120.773 66.3056 120.774 66.3056C120.774 66.3056 120.774 66.3056 120.775 66.3056C120.775 66.3056 120.775 66.3056 120.775 66.3056C120.776 66.3056 120.776 66.3056 120.776 66.3056C120.777 66.3056 120.777 66.3056 120.777 66.3056C120.777 66.3056 120.778 66.3056 120.778 66.3056C120.778 66.3056 120.778 66.3056 120.779 66.3056C120.779 66.3056 120.779 66.3056 120.78 66.3056C120.78 66.3056 120.78 66.3056 120.78 66.3056C120.781 66.3056 120.781 66.3056 120.781 66.3056C120.781 66.3056 120.782 66.3056 120.782 66.3056C120.782 66.3056 120.782 66.3056 120.783 66.3056C120.783 66.3056 120.783 66.3056 120.784 66.3056C120.784 66.3056 120.784 66.3056 120.784 66.3056C120.785 66.3056 120.785 66.3056 120.785 66.3056C120.785 66.3056 120.786 66.3056 120.786 66.3056C120.786 66.3056 120.787 66.3056 120.787 66.3056C120.787 66.3056 120.787 66.3056 120.788 66.3056C120.788 66.3056 120.788 66.3056 120.788 66.3056C120.789 66.3056 120.789 66.3056 120.789 66.3056C120.79 66.3056 120.79 66.3056 120.79 66.3056C120.79 66.3056 120.791 66.3056 120.791 66.3056C120.791 66.3056 120.791 66.3056 120.792 66.3056C120.792 66.3056 120.792 66.3056 120.792 66.3056C120.793 66.3056 120.793 66.3056 120.793 66.3056C120.794 66.3056 120.794 66.3056 120.794 66.3056C120.794 66.3056 120.795 66.3056 120.795 66.3056C120.795 66.3056 120.795 66.3056 120.796 66.3056C120.796 66.3056 120.796 66.3056 120.796 66.3056C120.797 66.3056 120.797 66.3056 120.797 66.3056C120.798 66.3056 120.798 66.3056 120.798 66.3056C120.798 66.3056 120.799 66.3056 120.799 66.3056C120.799 66.3056 120.799 66.3056 120.8 66.3056C120.8 66.3056 120.8 66.3056 120.8 66.3056C120.801 66.3056 120.801 66.3056 120.801 66.3056C120.802 66.3056 120.802 66.3056 120.802 66.3056C120.802 66.3056 120.803 66.3056 120.803 66.3056C120.803 66.3056 120.803 66.3056 120.804 66.3056C120.804 66.3056 120.804 66.3056 120.804 66.3056C120.805 66.3056 120.805 66.3056 120.805 66.3056C120.806 66.3056 120.806 66.3056 120.806 66.3056C120.806 66.3056 120.807 66.3056 120.807 66.3056C120.807 66.3056 120.807 66.3056 120.808 66.3056C120.808 66.3056 120.808 66.3056 120.808 66.3056C120.809 66.3056 120.809 66.3056 120.809 66.3056C120.809 66.3056 120.81 66.3056 120.81 66.3056C120.81 66.3056 120.81 66.3056 120.811 66.3056C120.811 66.3056 120.811 66.3056 120.812 66.3056C120.812 66.3056 120.812 66.3056 120.812 66.3056C120.813 66.3056 120.813 66.3056 120.813 66.3056C120.813 66.3056 120.814 66.3056 120.814 66.3056C120.814 66.3056 120.814 66.3056 120.815 66.3056C120.815 66.3056 120.815 66.3056 120.815 66.3056C120.816 66.3056 120.816 66.3056 120.816 66.3056C120.816 66.3056 120.817 66.3056 120.817 66.3056C120.817 66.3056 120.818 66.3056 120.818 66.3056C120.818 66.3056 120.818 66.3056 120.819 66.3056C120.819 66.3056 120.819 66.3056 120.819 66.3056C120.82 66.3056 120.82 66.3056 120.82 66.3056C120.82 66.3056 120.821 66.3056 120.821 66.3056C120.821 66.3056 120.821 66.3056 120.822 66.3056C120.822 66.3056 120.822 66.3056 120.822 66.3056C120.823 66.3056 120.823 66.3056 120.823 66.3056C120.823 66.3056 120.824 66.3056 120.824 66.3056C120.824 66.3056 120.825 66.3056 120.825 66.3056C120.825 66.3056 120.825 66.3056 120.826 66.3056C120.826 66.3056 120.826 66.3056 120.826 66.3056C120.827 66.3056 120.827 66.3056 120.827 66.3056C120.827 66.3056 120.828 66.3056 120.828 66.3056C120.828 66.3056 120.828 66.3056 120.829 66.3056C120.829 66.3056 120.829 66.3056 120.829 66.3056C120.83 66.3056 120.83 66.3056 120.83 66.3056C120.83 66.3056 120.831 66.3056 120.831 66.3056C120.831 66.3056 120.831 66.3056 120.832 66.3056C120.832 66.3056 120.832 66.3056 120.832 66.3056C120.833 66.3056 120.833 66.3056 120.833 66.3056C120.833 66.3056 120.834 66.3056 120.834 66.3056C120.834 66.3056 120.834 66.3056 120.835 66.3056C120.835 66.3056 120.835 66.3056 120.835 66.3056C120.836 66.3056 120.836 66.3056 120.836 66.3056C120.836 66.3056 120.837 66.3056 120.837 66.3056C120.837 66.3056 120.838 66.3056 120.838 66.3056C120.838 66.3056 120.838 66.3056 120.839 66.3056C120.839 66.3056 120.839 66.3056 120.839 66.3056C120.84 66.3056 120.84 66.3056 120.84 66.3056C120.84 66.3056 120.841 66.3056 120.841 66.3056C120.841 66.3056 120.841 66.3056 120.842 66.3056C120.842 66.3056 120.842 66.3056 120.842 66.3056C120.843 66.3056 120.843 66.3056 120.843 66.3056C120.843 66.3056 120.844 66.3056 120.844 66.3056C120.844 66.3056 120.844 66.3056 120.845 66.3056C120.845 66.3056 120.845 66.3056 120.845 66.3056C120.846 66.3056 120.846 66.3056 120.846 66.3056C120.846 66.3056 120.847 66.3056 120.847 66.3056C120.847 66.3056 120.847 66.3056 120.848 66.3056C120.848 66.3056 120.848 66.3056 120.848 66.3056C120.849 66.3056 120.849 66.3056 120.849 66.3056C120.849 66.3056 120.85 66.3056 120.85 66.3056C120.85 66.3056 120.85 66.3056 120.851 66.3056C120.851 66.3056 120.851 66.3056 120.851 66.3056C120.852 66.3056 120.852 66.3056 120.852 66.3056C120.852 66.3056 120.852 66.3056 120.853 66.3056C120.853 66.3056 120.853 66.3056 120.853 66.3056C120.854 66.3056 120.854 66.3056 120.854 66.3056C120.854 66.3056 120.855 66.3056 120.855 66.3056C120.855 66.3056 120.855 66.3056 120.856 66.3056C120.856 66.3056 120.856 66.3056 120.856 66.3056C120.857 66.3056 120.857 66.3056 120.857 66.3056C120.857 66.3056 120.858 66.3056 120.858 66.3056C120.858 66.3056 120.858 66.3056 120.859 66.3056C120.859 66.3056 120.859 66.3056 120.859 66.3056C120.86 66.3056 120.86 66.3056 120.86 66.3056C120.86 66.3056 120.861 66.3056 120.861 66.3056C120.861 66.3056 120.861 66.3056 120.862 66.3056C120.862 66.3056 120.862 66.3056 120.862 66.3056C120.863 66.3056 120.863 66.3056 120.863 66.3056C120.863 66.3056 120.864 66.3056 120.864 66.3056C120.864 66.3056 120.864 66.3056 120.864 66.3056C120.865 66.3056 120.865 66.3056 120.865 66.3056C120.865 66.3056 120.866 66.3056 120.866 66.3056C120.866 66.3056 120.866 66.3056 120.867 66.3056C120.867 66.3056 120.867 66.3056 120.867 66.3056C120.868 66.3056 120.868 66.3056 120.868 66.3056C120.868 66.3056 120.869 66.3056 120.869 66.3056C120.869 66.3056 120.869 66.3056 120.87 66.3056C120.87 66.3056 120.87 66.3056 120.87 66.3056C120.871 66.3056 120.871 66.3056 120.871 66.3056C120.871 66.3056 120.871 66.3056 120.872 66.3056C120.872 66.3056 120.872 66.3056 120.872 66.3056C120.873 66.3056 120.873 66.3056 120.873 66.3056C120.873 66.3056 120.874 66.3056 120.874 66.3056C120.874 66.3056 120.874 66.3056 120.875 66.3056C120.875 66.3056 120.875 66.3056 120.875 66.3056C120.876 66.3056 120.876 66.3056 120.876 66.3056C120.876 66.3056 120.877 66.3056 120.877 66.3056C120.877 66.3056 120.877 66.3056 120.877 66.3056C120.878 66.3056 120.878 66.3056 120.878 66.3056C120.878 66.3056 120.879 66.3056 120.879 66.3056C120.879 66.3056 120.879 66.3056 120.88 66.3056C120.88 66.3056 120.88 66.3056 120.88 66.3056C120.881 66.3056 120.881 66.3056 120.881 66.3056C120.881 66.3056 120.881 66.3056 120.882 66.3056C120.882 66.3056 120.882 66.3056 120.882 66.3056C120.883 66.3056 120.883 66.3056 120.883 66.3056C120.883 66.3056 120.884 66.3056 120.884 66.3056C120.884 66.3056 120.884 66.3056 120.885 66.3056C120.885 66.3056 120.885 66.3056 120.885 66.3056C120.885 66.3056 120.886 66.3056 120.886 66.3056C120.886 66.3056 120.886 66.3056 120.887 66.3056C120.887 66.3056 120.887 66.3056 120.887 66.3056C120.888 66.3056 120.888 66.3056 120.888 66.3056C120.888 66.3056 120.889 66.3056 120.889 66.3056C120.889 66.3056 120.889 66.3056 120.889 66.3056C120.89 66.3056 120.89 66.3056 120.89 66.3056C120.89 66.3056 120.891 66.3056 120.891 66.3056C120.891 66.3056 120.891 66.3056 120.892 66.3056C120.892 66.3056 120.892 66.3056 120.892 66.3056C120.892 66.3056 120.893 66.3056 120.893 66.3056C120.893 66.3056 120.893 66.3056 120.894 66.3056C120.894 66.3056 120.894 66.3056 120.894 66.3056C120.895 66.3056 120.895 66.3056 120.895 66.3056C120.895 66.3056 120.896 66.3056 120.896 66.3056C120.896 66.3056 120.896 66.3056 120.896 66.3056C120.897 66.3056 120.897 66.3056 120.897 66.3056C120.897 66.3056 120.898 66.3056 120.898 66.3056C120.898 66.3056 120.898 66.3056 120.899 66.3056C120.899 66.3056 120.899 66.3056 120.899 66.3056C120.899 66.3056 120.9 66.3056 120.9 66.3056C120.9 66.3056 120.9 66.3056 120.901 66.3056C120.901 66.3056 120.901 66.3056 120.901 66.3056C120.901 66.3056 120.902 66.3056 120.902 66.3056C120.902 66.3056 120.902 66.3056 120.903 66.3056C120.903 66.3056 120.903 66.3056 120.903 66.3056C120.904 66.3056 120.904 66.3056 120.904 66.3056C120.904 66.3056 120.904 66.3056 120.905 66.3056C120.905 66.3056 120.905 66.3056 120.905 66.3056C120.906 66.3056 120.906 66.3056 120.906 66.3056C120.906 66.3056 120.906 66.3056 120.907 66.3056C120.907 66.3056 120.907 66.3056 120.907 66.3056C120.908 66.3056 120.908 66.3056 120.908 66.3056C120.908 66.3056 120.909 66.3056 120.909 66.3056C120.909 66.3056 120.909 66.3056 120.909 66.3056C120.91 66.3056 120.91 66.3056 120.91 66.3056C120.91 66.3056 120.911 66.3056 120.911 66.3056C120.911 66.3056 120.911 66.3056 120.911 66.3056C120.912 66.3056 120.912 66.3056 120.912 66.3056C120.912 66.3056 120.913 66.3056 120.913 66.3056C120.913 66.3056 120.913 66.3056 120.913 66.3056C120.914 66.3056 120.914 66.3056 120.914 66.3056C120.914 66.3056 120.915 66.3056 120.915 66.3056C120.915 66.3056 120.915 66.3056 120.915 66.3056C120.916 66.3056 120.916 66.3056 120.916 66.3056C120.916 66.3056 120.917 66.3056 120.917 66.3056C120.917 66.3056 120.917 66.3056 120.917 66.3056C120.918 66.3056 120.918 66.3056 120.918 66.3056C120.918 66.3056 120.919 66.3056 120.919 66.3056C120.919 66.3056 120.919 66.3056 120.919 66.3056C120.92 66.3056 120.92 66.3056 120.92 66.3056C120.92 66.3056 120.921 66.3056 120.921 66.3056C120.921 66.3056 120.921 66.3056 120.921 66.3056C120.922 66.3056 120.922 66.3056 120.922 66.3056C120.922 66.3056 120.923 66.3056 120.923 66.3056C120.923 66.3056 120.923 66.3056 120.923 66.3056C120.924 66.3056 120.924 66.3056 120.924 66.3056C120.924 66.3056 120.925 66.3056 120.925 66.3056C120.925 66.3056 120.925 66.3056 120.925 66.3056C120.926 66.3056 120.926 66.3056 120.926 66.3056C120.926 66.3056 120.927 66.3056 120.927 66.3056C120.927 66.3056 120.927 66.3056 120.927 66.3056C120.928 66.3056 120.928 66.3056 120.928 66.3056C120.928 66.3056 120.928 66.3056 120.929 66.3056C120.929 66.3056 120.929 66.3056 120.929 66.3056C120.93 66.3056 120.93 66.3056 120.93 66.3056C120.93 66.3056 120.93 66.3056 120.931 66.3056C120.931 66.3056 120.931 66.3056 120.931 66.3056C120.932 66.3056 120.932 66.3056 120.932 66.3056C120.932 66.3056 120.932 66.3056 120.933 66.3056C120.933 66.3056 120.933 66.3056 120.933 66.3056C120.933 66.3056 120.934 66.3056 120.934 66.3056C120.934 66.3056 120.934 66.3056 120.935 66.3056C120.935 66.3056 120.935 66.3056 120.935 66.3056C120.935 66.3056 120.936 66.3056 120.936 66.3056C120.936 66.3056 120.936 66.3056 120.936 66.3056C120.937 66.3056 120.937 66.3056 120.937 66.3056C120.937 66.3056 120.938 66.3056 120.938 66.3056C120.938 66.3056 120.938 66.3056 120.938 66.3056C120.939 66.3056 120.939 66.3056 120.939 66.3056C120.939 66.3056 120.939 66.3056 120.94 66.3056C120.94 66.3056 120.94 66.3056 120.94 66.3056C120.941 66.3056 120.941 66.3056 120.941 66.3056C120.941 66.3056 120.941 66.3056 120.942 66.3056C120.942 66.3056 120.942 66.3056 120.942 66.3056C120.942 66.3056 120.943 66.3056 120.943 66.3056C120.943 66.3056 120.943 66.3056 120.943 66.3056C120.944 66.3056 120.944 66.3056 120.944 66.3056C120.944 66.3056 120.945 66.3056 120.945 66.3056C120.945 66.3056 120.945 66.3056 120.945 66.3056C120.946 66.3056 120.946 66.3056 120.946 66.3056C120.946 66.3056 120.946 66.3056 120.947 66.3056C120.947 66.3056 120.947 66.3056 120.947 66.3056C120.947 66.3056 120.948 66.3056 120.948 66.3056C120.948 66.3056 120.948 66.3056 120.949 66.3056C120.949 66.3056 120.949 66.3056 120.949 66.3056C120.949 66.3056 120.95 66.3056 120.95 66.3056C120.95 66.3056 120.95 66.3056 120.95 66.3056C120.951 66.3056 120.951 66.3056 120.951 66.3056C120.951 66.3056 120.951 66.3056 120.952 66.3056C120.952 66.3056 120.952 66.3056 120.952 66.3056V64.3056C120.952 64.3056 120.952 64.3056 120.952 64.3056C120.951 64.3056 120.951 64.3056 120.951 64.3056C120.951 64.3056 120.951 64.3056 120.95 64.3056C120.95 64.3056 120.95 64.3056 120.95 64.3056C120.95 64.3056 120.949 64.3056 120.949 64.3056C120.949 64.3056 120.949 64.3056 120.949 64.3056C120.948 64.3056 120.948 64.3056 120.948 64.3056C120.948 64.3056 120.947 64.3056 120.947 64.3056C120.947 64.3056 120.947 64.3056 120.947 64.3056C120.946 64.3056 120.946 64.3056 120.946 64.3056C120.946 64.3056 120.946 64.3056 120.945 64.3056C120.945 64.3056 120.945 64.3056 120.945 64.3056C120.945 64.3056 120.944 64.3056 120.944 64.3056C120.944 64.3056 120.944 64.3056 120.943 64.3056C120.943 64.3056 120.943 64.3056 120.943 64.3056C120.943 64.3056 120.942 64.3056 120.942 64.3056C120.942 64.3056 120.942 64.3056 120.942 64.3056C120.941 64.3056 120.941 64.3056 120.941 64.3056C120.941 64.3056 120.941 64.3056 120.94 64.3056C120.94 64.3056 120.94 64.3056 120.94 64.3056C120.939 64.3056 120.939 64.3056 120.939 64.3056C120.939 64.3056 120.939 64.3056 120.938 64.3056C120.938 64.3056 120.938 64.3056 120.938 64.3056C120.938 64.3056 120.937 64.3056 120.937 64.3056C120.937 64.3056 120.937 64.3056 120.936 64.3056C120.936 64.3056 120.936 64.3056 120.936 64.3056C120.936 64.3056 120.935 64.3056 120.935 64.3056C120.935 64.3056 120.935 64.3056 120.935 64.3056C120.934 64.3056 120.934 64.3056 120.934 64.3056C120.934 64.3056 120.933 64.3056 120.933 64.3056C120.933 64.3056 120.933 64.3056 120.933 64.3056C120.932 64.3056 120.932 64.3056 120.932 64.3056C120.932 64.3056 120.932 64.3056 120.931 64.3056C120.931 64.3056 120.931 64.3056 120.931 64.3056C120.93 64.3056 120.93 64.3056 120.93 64.3056C120.93 64.3056 120.93 64.3056 120.929 64.3056C120.929 64.3056 120.929 64.3056 120.929 64.3056C120.928 64.3056 120.928 64.3056 120.928 64.3056C120.928 64.3056 120.928 64.3056 120.927 64.3056C120.927 64.3056 120.927 64.3056 120.927 64.3056C120.927 64.3056 120.926 64.3056 120.926 64.3056C120.926 64.3056 120.926 64.3056 120.925 64.3056C120.925 64.3056 120.925 64.3056 120.925 64.3056C120.925 64.3056 120.924 64.3056 120.924 64.3056C120.924 64.3056 120.924 64.3056 120.923 64.3056C120.923 64.3056 120.923 64.3056 120.923 64.3056C120.923 64.3056 120.922 64.3056 120.922 64.3056C120.922 64.3056 120.922 64.3056 120.921 64.3056C120.921 64.3056 120.921 64.3056 120.921 64.3056C120.921 64.3056 120.92 64.3056 120.92 64.3056C120.92 64.3056 120.92 64.3056 120.919 64.3056C120.919 64.3056 120.919 64.3056 120.919 64.3056C120.919 64.3056 120.918 64.3056 120.918 64.3056C120.918 64.3056 120.918 64.3056 120.917 64.3056C120.917 64.3056 120.917 64.3056 120.917 64.3056C120.917 64.3056 120.916 64.3056 120.916 64.3056C120.916 64.3056 120.916 64.3056 120.915 64.3056C120.915 64.3056 120.915 64.3056 120.915 64.3056C120.915 64.3056 120.914 64.3056 120.914 64.3056C120.914 64.3056 120.914 64.3056 120.913 64.3056C120.913 64.3056 120.913 64.3056 120.913 64.3056C120.913 64.3056 120.912 64.3056 120.912 64.3056C120.912 64.3056 120.912 64.3056 120.911 64.3056C120.911 64.3056 120.911 64.3056 120.911 64.3056C120.911 64.3056 120.91 64.3056 120.91 64.3056C120.91 64.3056 120.91 64.3056 120.909 64.3056C120.909 64.3056 120.909 64.3056 120.909 64.3056C120.909 64.3056 120.908 64.3056 120.908 64.3056C120.908 64.3056 120.908 64.3056 120.907 64.3056C120.907 64.3056 120.907 64.3056 120.907 64.3056C120.906 64.3056 120.906 64.3056 120.906 64.3056C120.906 64.3056 120.906 64.3056 120.905 64.3056C120.905 64.3056 120.905 64.3056 120.905 64.3056C120.904 64.3056 120.904 64.3056 120.904 64.3056C120.904 64.3056 120.904 64.3056 120.903 64.3056C120.903 64.3056 120.903 64.3056 120.903 64.3056C120.902 64.3056 120.902 64.3056 120.902 64.3056C120.902 64.3056 120.901 64.3056 120.901 64.3056C120.901 64.3056 120.901 64.3056 120.901 64.3056C120.9 64.3056 120.9 64.3056 120.9 64.3056C120.9 64.3056 120.899 64.3056 120.899 64.3056C120.899 64.3056 120.899 64.3056 120.899 64.3056C120.898 64.3056 120.898 64.3056 120.898 64.3056C120.898 64.3056 120.897 64.3056 120.897 64.3056C120.897 64.3056 120.897 64.3056 120.896 64.3056C120.896 64.3056 120.896 64.3056 120.896 64.3056C120.896 64.3056 120.895 64.3056 120.895 64.3056C120.895 64.3056 120.895 64.3056 120.894 64.3056C120.894 64.3056 120.894 64.3056 120.894 64.3056C120.893 64.3056 120.893 64.3056 120.893 64.3056C120.893 64.3056 120.892 64.3056 120.892 64.3056C120.892 64.3056 120.892 64.3056 120.892 64.3056C120.891 64.3056 120.891 64.3056 120.891 64.3056C120.891 64.3056 120.89 64.3056 120.89 64.3056C120.89 64.3056 120.89 64.3056 120.889 64.3056C120.889 64.3056 120.889 64.3056 120.889 64.3056C120.889 64.3056 120.888 64.3056 120.888 64.3056C120.888 64.3056 120.888 64.3056 120.887 64.3056C120.887 64.3056 120.887 64.3056 120.887 64.3056C120.886 64.3056 120.886 64.3056 120.886 64.3056C120.886 64.3056 120.885 64.3056 120.885 64.3056C120.885 64.3056 120.885 64.3056 120.885 64.3056C120.884 64.3056 120.884 64.3056 120.884 64.3056C120.884 64.3056 120.883 64.3056 120.883 64.3056C120.883 64.3056 120.883 64.3056 120.882 64.3056C120.882 64.3056 120.882 64.3056 120.882 64.3056C120.881 64.3056 120.881 64.3056 120.881 64.3056C120.881 64.3056 120.881 64.3056 120.88 64.3056C120.88 64.3056 120.88 64.3056 120.88 64.3056C120.879 64.3056 120.879 64.3056 120.879 64.3056C120.879 64.3056 120.878 64.3056 120.878 64.3056C120.878 64.3056 120.878 64.3056 120.877 64.3056C120.877 64.3056 120.877 64.3056 120.877 64.3056C120.877 64.3056 120.876 64.3056 120.876 64.3056C120.876 64.3056 120.876 64.3056 120.875 64.3056C120.875 64.3056 120.875 64.3056 120.875 64.3056C120.874 64.3056 120.874 64.3056 120.874 64.3056C120.874 64.3056 120.873 64.3056 120.873 64.3056C120.873 64.3056 120.873 64.3056 120.872 64.3056C120.872 64.3056 120.872 64.3056 120.872 64.3056C120.871 64.3056 120.871 64.3056 120.871 64.3056C120.871 64.3056 120.871 64.3056 120.87 64.3056C120.87 64.3056 120.87 64.3056 120.87 64.3056C120.869 64.3056 120.869 64.3056 120.869 64.3056C120.869 64.3056 120.868 64.3056 120.868 64.3056C120.868 64.3056 120.868 64.3056 120.867 64.3056C120.867 64.3056 120.867 64.3056 120.867 64.3056C120.866 64.3056 120.866 64.3056 120.866 64.3056C120.866 64.3056 120.865 64.3056 120.865 64.3056C120.865 64.3056 120.865 64.3056 120.864 64.3056C120.864 64.3056 120.864 64.3056 120.864 64.3056C120.864 64.3056 120.863 64.3056 120.863 64.3056C120.863 64.3056 120.863 64.3056 120.862 64.3056C120.862 64.3056 120.862 64.3056 120.862 64.3056C120.861 64.3056 120.861 64.3056 120.861 64.3056C120.861 64.3056 120.86 64.3056 120.86 64.3056C120.86 64.3056 120.86 64.3056 120.859 64.3056C120.859 64.3056 120.859 64.3056 120.859 64.3056C120.858 64.3056 120.858 64.3056 120.858 64.3056C120.858 64.3056 120.857 64.3056 120.857 64.3056C120.857 64.3056 120.857 64.3056 120.856 64.3056C120.856 64.3056 120.856 64.3056 120.856 64.3056C120.855 64.3056 120.855 64.3056 120.855 64.3056C120.855 64.3056 120.854 64.3056 120.854 64.3056C120.854 64.3056 120.854 64.3056 120.853 64.3056C120.853 64.3056 120.853 64.3056 120.853 64.3056C120.852 64.3056 120.852 64.3056 120.852 64.3056C120.852 64.3056 120.852 64.3056 120.851 64.3056C120.851 64.3056 120.851 64.3056 120.851 64.3056C120.85 64.3056 120.85 64.3056 120.85 64.3056C120.85 64.3056 120.849 64.3056 120.849 64.3056C120.849 64.3056 120.849 64.3056 120.848 64.3056C120.848 64.3056 120.848 64.3056 120.848 64.3056C120.847 64.3056 120.847 64.3056 120.847 64.3056C120.847 64.3056 120.846 64.3056 120.846 64.3056C120.846 64.3056 120.846 64.3056 120.845 64.3056C120.845 64.3056 120.845 64.3056 120.845 64.3056C120.844 64.3056 120.844 64.3056 120.844 64.3056C120.844 64.3056 120.843 64.3056 120.843 64.3056C120.843 64.3056 120.843 64.3056 120.842 64.3056C120.842 64.3056 120.842 64.3056 120.842 64.3056C120.841 64.3056 120.841 64.3056 120.841 64.3056C120.841 64.3056 120.84 64.3056 120.84 64.3056C120.84 64.3056 120.84 64.3056 120.839 64.3056C120.839 64.3056 120.839 64.3056 120.839 64.3056C120.838 64.3056 120.838 64.3056 120.838 64.3056C120.838 64.3056 120.837 64.3056 120.837 64.3056C120.837 64.3056 120.836 64.3056 120.836 64.3056C120.836 64.3056 120.836 64.3056 120.835 64.3056C120.835 64.3056 120.835 64.3056 120.835 64.3056C120.834 64.3056 120.834 64.3056 120.834 64.3056C120.834 64.3056 120.833 64.3056 120.833 64.3056C120.833 64.3056 120.833 64.3056 120.832 64.3056C120.832 64.3056 120.832 64.3056 120.832 64.3056C120.831 64.3056 120.831 64.3056 120.831 64.3056C120.831 64.3056 120.83 64.3056 120.83 64.3056C120.83 64.3056 120.83 64.3056 120.829 64.3056C120.829 64.3056 120.829 64.3056 120.829 64.3056C120.828 64.3056 120.828 64.3056 120.828 64.3056C120.828 64.3056 120.827 64.3056 120.827 64.3056C120.827 64.3056 120.827 64.3056 120.826 64.3056C120.826 64.3056 120.826 64.3056 120.826 64.3056C120.825 64.3056 120.825 64.3056 120.825 64.3056C120.825 64.3056 120.824 64.3056 120.824 64.3056C120.824 64.3056 120.823 64.3056 120.823 64.3056C120.823 64.3056 120.823 64.3056 120.822 64.3056C120.822 64.3056 120.822 64.3056 120.822 64.3056C120.821 64.3056 120.821 64.3056 120.821 64.3056C120.821 64.3056 120.82 64.3056 120.82 64.3056C120.82 64.3056 120.82 64.3056 120.819 64.3056C120.819 64.3056 120.819 64.3056 120.819 64.3056C120.818 64.3056 120.818 64.3056 120.818 64.3056C120.818 64.3056 120.817 64.3056 120.817 64.3056C120.817 64.3056 120.816 64.3056 120.816 64.3056C120.816 64.3056 120.816 64.3056 120.815 64.3056C120.815 64.3056 120.815 64.3056 120.815 64.3056C120.814 64.3056 120.814 64.3056 120.814 64.3056C120.814 64.3056 120.813 64.3056 120.813 64.3056C120.813 64.3056 120.813 64.3056 120.812 64.3056C120.812 64.3056 120.812 64.3056 120.812 64.3056C120.811 64.3056 120.811 64.3056 120.811 64.3056C120.81 64.3056 120.81 64.3056 120.81 64.3056C120.81 64.3056 120.809 64.3056 120.809 64.3056C120.809 64.3056 120.809 64.3056 120.808 64.3056C120.808 64.3056 120.808 64.3056 120.808 64.3056C120.807 64.3056 120.807 64.3056 120.807 64.3056C120.807 64.3056 120.806 64.3056 120.806 64.3056C120.806 64.3056 120.806 64.3056 120.805 64.3056C120.805 64.3056 120.805 64.3056 120.804 64.3056C120.804 64.3056 120.804 64.3056 120.804 64.3056C120.803 64.3056 120.803 64.3056 120.803 64.3056C120.803 64.3056 120.802 64.3056 120.802 64.3056C120.802 64.3056 120.802 64.3056 120.801 64.3056C120.801 64.3056 120.801 64.3056 120.8 64.3056C120.8 64.3056 120.8 64.3056 120.8 64.3056C120.799 64.3056 120.799 64.3056 120.799 64.3056C120.799 64.3056 120.798 64.3056 120.798 64.3056C120.798 64.3056 120.798 64.3056 120.797 64.3056C120.797 64.3056 120.797 64.3056 120.796 64.3056C120.796 64.3056 120.796 64.3056 120.796 64.3056C120.795 64.3056 120.795 64.3056 120.795 64.3056C120.795 64.3056 120.794 64.3056 120.794 64.3056C120.794 64.3056 120.794 64.3056 120.793 64.3056C120.793 64.3056 120.793 64.3056 120.792 64.3056C120.792 64.3056 120.792 64.3056 120.792 64.3056C120.791 64.3056 120.791 64.3056 120.791 64.3056C120.791 64.3056 120.79 64.3056 120.79 64.3056C120.79 64.3056 120.79 64.3056 120.789 64.3056C120.789 64.3056 120.789 64.3056 120.788 64.3056C120.788 64.3056 120.788 64.3056 120.788 64.3056C120.787 64.3056 120.787 64.3056 120.787 64.3056C120.787 64.3056 120.786 64.3056 120.786 64.3056C120.786 64.3056 120.785 64.3056 120.785 64.3056C120.785 64.3056 120.785 64.3056 120.784 64.3056C120.784 64.3056 120.784 64.3056 120.784 64.3056C120.783 64.3056 120.783 64.3056 120.783 64.3056C120.782 64.3056 120.782 64.3056 120.782 64.3056C120.782 64.3056 120.781 64.3056 120.781 64.3056C120.781 64.3056 120.781 64.3056 120.78 64.3056C120.78 64.3056 120.78 64.3056 120.78 64.3056C120.779 64.3056 120.779 64.3056 120.779 64.3056C120.778 64.3056 120.778 64.3056 120.778 64.3056C120.778 64.3056 120.777 64.3056 120.777 64.3056C120.777 64.3056 120.777 64.3056 120.776 64.3056C120.776 64.3056 120.776 64.3056 120.775 64.3056C120.775 64.3056 120.775 64.3056 120.775 64.3056C120.774 64.3056 120.774 64.3056 120.774 64.3056C120.773 64.3056 120.773 64.3056 120.773 64.3056C120.773 64.3056 120.772 64.3056 120.772 64.3056C120.772 64.3056 120.772 64.3056 120.771 64.3056C120.771 64.3056 120.771 64.3056 120.77 64.3056C120.77 64.3056 120.77 64.3056 120.77 64.3056C120.769 64.3056 120.769 64.3056 120.769 64.3056C120.769 64.3056 120.768 64.3056 120.768 64.3056C120.768 64.3056 120.767 64.3056 120.767 64.3056C120.767 64.3056 120.767 64.3056 120.766 64.3056C120.766 64.3056 120.766 64.3056 120.765 64.3056C120.765 64.3056 120.765 64.3056 120.765 64.3056C120.764 64.3056 120.764 64.3056 120.764 64.3056C120.764 64.3056 120.763 64.3056 120.763 64.3056C120.763 64.3056 120.762 64.3056 120.762 64.3056C120.762 64.3056 120.762 64.3056 120.761 64.3056C120.761 64.3056 120.761 64.3056 120.76 64.3056C120.76 64.3056 120.76 64.3056 120.76 64.3056C120.759 64.3056 120.759 64.3056 120.759 64.3056C120.759 64.3056 120.758 64.3056 120.758 64.3056C120.758 64.3056 120.757 64.3056 120.757 64.3056C120.757 64.3056 120.757 64.3056 120.756 64.3056C120.756 64.3056 120.756 64.3056 120.755 64.3056C120.755 64.3056 120.755 64.3056 120.755 64.3056C120.754 64.3056 120.754 64.3056 120.754 64.3056C120.754 64.3056 120.753 64.3056 120.753 64.3056C120.753 64.3056 120.752 64.3056 120.752 64.3056C120.752 64.3056 120.752 64.3056 120.751 64.3056C120.751 64.3056 120.751 64.3056 120.75 64.3056C120.75 64.3056 120.75 64.3056 120.75 64.3056C120.749 64.3056 120.749 64.3056 120.749 64.3056C120.748 64.3056 120.748 64.3056 120.748 64.3056C120.748 64.3056 120.747 64.3056 120.747 64.3056C120.747 64.3056 120.746 64.3056 120.746 64.3056C120.746 64.3056 120.746 64.3056 120.745 64.3056C120.745 64.3056 120.745 64.3056 120.744 64.3056C120.744 64.3056 120.744 64.3056 120.744 64.3056C120.743 64.3056 120.743 64.3056 120.743 64.3056C120.742 64.3056 120.742 64.3056 120.742 64.3056C120.742 64.3056 120.741 64.3056 120.741 64.3056C120.741 64.3056 120.74 64.3056 120.74 64.3056C120.74 64.3056 120.74 64.3056 120.739 64.3056C120.739 64.3056 120.739 64.3056 120.738 64.3056C120.738 64.3056 120.738 64.3056 120.738 64.3056C120.737 64.3056 120.737 64.3056 120.737 64.3056C120.736 64.3056 120.736 64.3056 120.736 64.3056C120.736 64.3056 120.735 64.3056 120.735 64.3056C120.735 64.3056 120.734 64.3056 120.734 64.3056C120.734 64.3056 120.734 64.3056 120.733 64.3056C120.733 64.3056 120.733 64.3056 120.732 64.3056C120.732 64.3056 120.732 64.3056 120.732 64.3056C120.731 64.3056 120.731 64.3056 120.731 64.3056C120.73 64.3056 120.73 64.3056 120.73 64.3056C120.73 64.3056 120.729 64.3056 120.729 64.3056C120.729 64.3056 120.728 64.3056 120.728 64.3056C120.728 64.3056 120.728 64.3056 120.727 64.3056C120.727 64.3056 120.727 64.3056 120.726 64.3056C120.726 64.3056 120.726 64.3056 120.726 64.3056C120.725 64.3056 120.725 64.3056 120.725 64.3056C120.724 64.3056 120.724 64.3056 120.724 64.3056C120.724 64.3056 120.723 64.3056 120.723 64.3056C120.723 64.3056 120.722 64.3056 120.722 64.3056C120.722 64.3056 120.721 64.3056 120.721 64.3056C120.721 64.3056 120.721 64.3056 120.72 64.3056C120.72 64.3056 120.72 64.3056 120.719 64.3056C120.719 64.3056 120.719 64.3056 120.719 64.3056C120.718 64.3056 120.718 64.3056 120.718 64.3056C120.717 64.3056 120.717 64.3056 120.717 64.3056C120.717 64.3056 120.716 64.3056 120.716 64.3056C120.716 64.3056 120.715 64.3056 120.715 64.3056C120.715 64.3056 120.714 64.3056 120.714 64.3056C120.714 64.3056 120.714 64.3056 120.713 64.3056C120.713 64.3056 120.713 64.3056 120.712 64.3056C120.712 64.3056 120.712 64.3056 120.712 64.3056C120.711 64.3056 120.711 64.3056 120.711 64.3056C120.71 64.3056 120.71 64.3056 120.71 64.3056C120.709 64.3056 120.709 64.3056 120.709 64.3056C120.709 64.3056 120.708 64.3056 120.708 64.3056C120.708 64.3056 120.707 64.3056 120.707 64.3056C120.707 64.3056 120.707 64.3056 120.706 64.3056C120.706 64.3056 120.706 64.3056 120.705 64.3056C120.705 64.3056 120.705 64.3056 120.704 64.3056C120.704 64.3056 120.704 64.3056 120.704 64.3056C120.703 64.3056 120.703 64.3056 120.703 64.3056C120.702 64.3056 120.702 64.3056 120.702 64.3056C120.701 64.3056 120.701 64.3056 120.701 64.3056C120.701 64.3056 120.7 64.3056 120.7 64.3056C120.7 64.3056 120.699 64.3056 120.699 64.3056C120.699 64.3056 120.699 64.3056 120.698 64.3056C120.698 64.3056 120.698 64.3056 120.697 64.3056C120.697 64.3056 120.697 64.3056 120.696 64.3056C120.696 64.3056 120.696 64.3056 120.696 64.3056C120.695 64.3056 120.695 64.3056 120.695 64.3056C120.694 64.3056 120.694 64.3056 120.694 64.3056C120.693 64.3056 120.693 64.3056 120.693 64.3056C120.693 64.3056 120.692 64.3056 120.692 64.3056C120.692 64.3056 120.691 64.3056 120.691 64.3056C120.691 64.3056 120.69 64.3056 120.69 64.3056C120.69 64.3056 120.69 64.3056 120.689 64.3056C120.689 64.3056 120.689 64.3056 120.688 64.3056C120.688 64.3056 120.688 64.3056 120.687 64.3056C120.687 64.3056 120.687 64.3056 120.687 64.3056C120.686 64.3056 120.686 64.3056 120.686 64.3056C120.685 64.3056 120.685 64.3056 120.685 64.3056C120.684 64.3056 120.684 64.3056 120.684 64.3056C120.684 64.3056 120.683 64.3056 120.683 64.3056C120.683 64.3056 120.682 64.3056 120.682 64.3056C120.682 64.3056 120.681 64.3056 120.681 64.3056C120.681 64.3056 120.68 64.3056 120.68 64.3056C120.68 64.3056 120.68 64.3056 120.679 64.3056C120.679 64.3056 120.679 64.3056 120.678 64.3056C120.678 64.3056 120.678 64.3056 120.677 64.3056C120.677 64.3056 120.677 64.3056 120.677 64.3056C120.676 64.3056 120.676 64.3056 120.676 64.3056C120.675 64.3056 120.675 64.3056 120.675 64.3056C120.674 64.3056 120.674 64.3056 120.674 64.3056C120.673 64.3056 120.673 64.3056 120.673 64.3056C120.673 64.3056 120.672 64.3056 120.672 64.3056C120.672 64.3056 120.671 64.3056 120.671 64.3056C120.671 64.3056 120.67 64.3056 120.67 64.3056C120.67 64.3056 120.669 64.3056 120.669 64.3056C120.669 64.3056 120.669 64.3056 120.668 64.3056C120.668 64.3056 120.668 64.3056 120.667 64.3056C120.667 64.3056 120.667 64.3056 120.666 64.3056C120.666 64.3056 120.666 64.3056 120.665 64.3056C120.665 64.3056 120.665 64.3056 120.665 64.3056C120.664 64.3056 120.664 64.3056 120.664 64.3056C120.663 64.3056 120.663 64.3056 120.663 64.3056C120.662 64.3056 120.662 64.3056 120.662 64.3056C120.661 64.3056 120.661 64.3056 120.661 64.3056C120.661 64.3056 120.66 64.3056 120.66 64.3056C120.66 64.3056 120.659 64.3056 120.659 64.3056C120.659 64.3056 120.658 64.3056 120.658 64.3056C120.658 64.3056 120.657 64.3056 120.657 64.3056C120.657 64.3056 120.657 64.3056 120.656 64.3056C120.656 64.3056 120.656 64.3056 120.655 64.3056C120.655 64.3056 120.655 64.3056 120.654 64.3056C120.654 64.3056 120.654 64.3056 120.653 64.3056C120.653 64.3056 120.653 64.3056 120.652 64.3056C120.652 64.3056 120.652 64.3056 120.652 64.3056C120.651 64.3056 120.651 64.3056 120.651 64.3056C120.65 64.3056 120.65 64.3056 120.65 64.3056C120.649 64.3056 120.649 64.3056 120.649 64.3056C120.648 64.3056 120.648 64.3056 120.648 64.3056C120.647 64.3056 120.647 64.3056 120.647 64.3056C120.647 64.3056 120.646 64.3056 120.646 64.3056C120.646 64.3056 120.645 64.3056 120.645 64.3056C120.645 64.3056 120.644 64.3056 120.644 64.3056C120.644 64.3056 120.643 64.3056 120.643 64.3056C120.643 64.3056 120.642 64.3056 120.642 64.3056C120.642 64.3056 120.642 64.3056 120.641 64.3056C120.641 64.3056 120.641 64.3056 120.64 64.3056C120.64 64.3056 120.64 64.3056 120.639 64.3056C120.639 64.3056 120.639 64.3056 120.638 64.3056C120.638 64.3056 120.638 64.3056 120.637 64.3056C120.637 64.3056 120.637 64.3056 120.636 64.3056C120.636 64.3056 120.636 64.3056 120.636 64.3056C120.635 64.3056 120.635 64.3056 120.635 64.3056C120.634 64.3056 120.634 64.3056 120.634 64.3056C120.633 64.3056 120.633 64.3056 120.633 64.3056C120.632 64.3056 120.632 64.3056 120.632 64.3056C120.631 64.3056 120.631 64.3056 120.631 64.3056C120.63 64.3056 120.63 64.3056 120.63 64.3056C120.63 64.3056 120.629 64.3056 120.629 64.3056C120.629 64.3056 120.628 64.3056 120.628 64.3056C120.628 64.3056 120.627 64.3056 120.627 64.3056C120.627 64.3056 120.626 64.3056 120.626 64.3056C120.626 64.3056 120.625 64.3056 120.625 64.3056C120.625 64.3056 120.624 64.3056 120.624 64.3056C120.624 64.3056 120.623 64.3056 120.623 64.3056C120.623 64.3056 120.622 64.3056 120.622 64.3056C120.622 64.3056 120.622 64.3056 120.621 64.3056C120.621 64.3056 120.621 64.3056 120.62 64.3056C120.62 64.3056 120.62 64.3056 120.619 64.3056C120.619 64.3056 120.619 64.3056 120.618 64.3056C120.618 64.3056 120.618 64.3056 120.617 64.3056C120.617 64.3056 120.617 64.3056 120.616 64.3056C120.616 64.3056 120.616 64.3056 120.615 64.3056C120.615 64.3056 120.615 64.3056 120.614 64.3056C120.614 64.3056 120.614 64.3056 120.613 64.3056C120.613 64.3056 120.613 64.3056 120.613 64.3056C120.612 64.3056 120.612 64.3056 120.612 64.3056C120.611 64.3056 120.611 64.3056 120.611 64.3056C120.61 64.3056 120.61 64.3056 120.61 64.3056C120.609 64.3056 120.609 64.3056 120.609 64.3056C120.608 64.3056 120.608 64.3056 120.608 64.3056C120.607 64.3056 120.607 64.3056 120.607 64.3056C120.606 64.3056 120.606 64.3056 120.606 64.3056C120.605 64.3056 120.605 64.3056 120.605 64.3056C120.604 64.3056 120.604 64.3056 120.604 64.3056C120.603 64.3056 120.603 64.3056 120.603 64.3056C120.602 64.3056 120.602 64.3056 120.602 64.3056C120.601 64.3056 120.601 64.3056 120.601 64.3056C120.601 64.3056 120.6 64.3056 120.6 64.3056C120.6 64.3056 120.599 64.3056 120.599 64.3056C120.599 64.3056 120.598 64.3056 120.598 64.3056C120.598 64.3056 120.597 64.3056 120.597 64.3056C120.597 64.3056 120.596 64.3056 120.596 64.3056C120.596 64.3056 120.595 64.3056 120.595 64.3056C120.595 64.3056 120.594 64.3056 120.594 64.3056C120.594 64.3056 120.593 64.3056 120.593 64.3056C120.593 64.3056 120.592 64.3056 120.592 64.3056C120.592 64.3056 120.591 64.3056 120.591 64.3056C120.591 64.3056 120.59 64.3056 120.59 64.3056C120.59 64.3056 120.589 64.3056 120.589 64.3056C120.589 64.3056 120.588 64.3056 120.588 64.3056C120.588 64.3056 120.587 64.3056 120.587 64.3056C120.587 64.3056 120.586 64.3056 120.586 64.3056C120.586 64.3056 120.585 64.3056 120.585 64.3056C120.585 64.3056 120.584 64.3056 120.584 64.3056C120.584 64.3056 120.583 64.3056 120.583 64.3056C120.583 64.3056 120.582 64.3056 120.582 64.3056C120.582 64.3056 120.581 64.3056 120.581 64.3056C120.581 64.3056 120.58 64.3056 120.58 64.3056C120.58 64.3056 120.579 64.3056 120.579 64.3056C120.579 64.3056 120.578 64.3056 120.578 64.3056C120.578 64.3056 120.577 64.3056 120.577 64.3056C120.577 64.3056 120.576 64.3056 120.576 64.3056C120.576 64.3056 120.575 64.3056 120.575 64.3056C120.575 64.3056 120.574 64.3056 120.574 64.3056C120.574 64.3056 120.573 64.3056 120.573 64.3056C120.573 64.3056 120.572 64.3056 120.572 64.3056C120.572 64.3056 120.571 64.3056 120.571 64.3056C120.571 64.3056 120.57 64.3056 120.57 64.3056C120.57 64.3056 120.569 64.3056 120.569 64.3056C120.569 64.3056 120.568 64.3056 120.568 64.3056C120.568 64.3056 120.567 64.3056 120.567 64.3056C120.567 64.3056 120.566 64.3056 120.566 64.3056C120.566 64.3056 120.565 64.3056 120.565 64.3056C120.565 64.3056 120.564 64.3056 120.564 64.3056C120.564 64.3056 120.563 64.3056 120.563 64.3056C120.563 64.3056 120.562 64.3056 120.562 64.3056C120.562 64.3056 120.561 64.3056 120.561 64.3056C120.561 64.3056 120.56 64.3056 120.56 64.3056C120.56 64.3056 120.559 64.3056 120.559 64.3056C120.559 64.3056 120.558 64.3056 120.558 64.3056C120.558 64.3056 120.557 64.3056 120.557 64.3056C120.557 64.3056 120.556 64.3056 120.556 64.3056C120.556 64.3056 120.555 64.3056 120.555 64.3056C120.555 64.3056 120.554 64.3056 120.554 64.3056C120.554 64.3056 120.553 64.3056 120.553 64.3056C120.553 64.3056 120.552 64.3056 120.552 64.3056C120.552 64.3056 120.551 64.3056 120.551 64.3056C120.551 64.3056 120.55 64.3056 120.55 64.3056C120.55 64.3056 120.549 64.3056 120.549 64.3056C120.549 64.3056 120.548 64.3056 120.548 64.3056C120.547 64.3056 120.547 64.3056 120.547 64.3056C120.546 64.3056 120.546 64.3056 120.546 64.3056C120.545 64.3056 120.545 64.3056 120.545 64.3056C120.544 64.3056 120.544 64.3056 120.544 64.3056C120.543 64.3056 120.543 64.3056 120.543 64.3056C120.542 64.3056 120.542 64.3056 120.542 64.3056C120.541 64.3056 120.541 64.3056 120.541 64.3056C120.54 64.3056 120.54 64.3056 120.54 64.3056C120.539 64.3056 120.539 64.3056 120.539 64.3056C120.538 64.3056 120.538 64.3056 120.538 64.3056C120.537 64.3056 120.537 64.3056 120.537 64.3056C120.536 64.3056 120.536 64.3056 120.536 64.3056C120.535 64.3056 120.535 64.3056 120.534 64.3056C120.534 64.3056 120.534 64.3056 120.533 64.3056C120.533 64.3056 120.533 64.3056 120.532 64.3056C120.532 64.3056 120.532 64.3056 120.531 64.3056C120.531 64.3056 120.531 64.3056 120.53 64.3056C120.53 64.3056 120.53 64.3056 120.529 64.3056C120.529 64.3056 120.529 64.3056 120.528 64.3056C120.528 64.3056 120.528 64.3056 120.527 64.3056V66.3056ZM121.195 66.2757C121.302 66.249 121.451 66.2186 121.648 66.1857L121.319 64.2129C121.091 64.2509 120.886 64.2913 120.71 64.3355L121.195 66.2757ZM120.496 65.3561L121.559 72.0505L123.534 71.737L122.471 65.0426L120.496 65.3561ZM122.127 70.9858C121.767 71.1518 121.252 71.3096 120.553 71.4427L120.927 73.4074C121.716 73.2572 122.404 73.0607 122.965 72.8017L122.127 70.9858ZM120.553 71.4427C119.888 71.5693 119.068 71.6376 118.083 71.6376V73.6376C119.153 73.6376 120.104 73.5641 120.927 73.4074L120.553 71.4427ZM131.039 70.9905L130.568 71.8725L130.574 71.8758L131.039 70.9905ZM126.151 66.2619L125.285 66.7613L125.288 66.7677L126.151 66.2619ZM126.151 51.3324L125.291 50.8221L125.288 50.8266L126.151 51.3324ZM130.933 46.4975L130.43 45.6332L130.933 46.4975ZM143.578 46.5506L143.011 47.3747L143.021 47.3814L143.031 47.3879L143.578 46.5506ZM147.403 51.173L146.481 51.5588L146.484 51.5659L146.487 51.5729L147.403 51.173ZM148.519 59.9394L147.529 59.798L147.526 59.8189L147.524 59.8399L148.519 59.9394ZM148.306 61.4802V62.4802H149.109L149.283 61.6972L148.306 61.4802ZM133.164 61.4802V60.4802H131.863L132.198 61.7379L133.164 61.4802ZM135.449 64.8274L134.947 65.6922L134.957 65.6984L134.968 65.7042L135.449 64.8274ZM144.747 64.1367L145.623 63.6555L145.14 62.7745L144.261 63.2626L144.747 64.1367ZM147.722 69.556L148.295 70.3752L149.03 69.8609L148.599 69.0748L147.722 69.556ZM142.94 71.8406L143.228 72.7984L142.94 71.8406ZM133.058 55.5296L132.08 55.3236L131.826 56.5296H133.058V55.5296ZM140.921 55.5296V56.5296H141.921V55.5296H140.921ZM140.124 52.8731L139.281 53.41L139.295 53.4326L139.311 53.4544L140.124 52.8731ZM134.652 52.6075L135.263 53.3988L134.652 52.6075ZM138.052 71.6376C135.613 71.6376 133.437 71.1209 131.504 70.1053L130.574 71.8758C132.821 73.0562 135.32 73.6376 138.052 73.6376V71.6376ZM131.511 70.1086C129.623 69.0995 128.127 67.6552 127.014 65.7562L125.288 66.7677C126.584 68.9774 128.347 70.6855 130.568 71.8725L131.511 70.1086ZM127.018 65.7626C125.918 63.8547 125.345 61.5203 125.345 58.7175H123.345C123.345 61.7944 123.976 64.4896 125.285 66.7612L127.018 65.7626ZM125.345 58.7175C125.345 55.9898 125.916 53.7104 127.014 51.8381L125.288 50.8266C123.977 53.063 123.345 55.7071 123.345 58.7175H125.345ZM127.011 51.8426C128.171 49.8875 129.646 48.403 131.436 47.3619L130.43 45.6332C128.323 46.8589 126.611 48.5976 125.291 50.8222L127.011 51.8426ZM131.436 47.3619C133.238 46.3133 135.12 45.7973 137.096 45.7973V43.7973C134.751 43.7973 132.524 44.4149 130.43 45.6332L131.436 47.3619ZM137.096 45.7973C139.569 45.7973 141.518 46.3479 143.011 47.3747L144.144 45.7266C142.238 44.4156 139.865 43.7973 137.096 43.7973V45.7973ZM143.031 47.3879C144.596 48.4097 145.742 49.7917 146.481 51.5588L148.326 50.7872C147.435 48.658 146.031 46.9584 144.125 45.7134L143.031 47.3879ZM146.487 51.5729C147.276 53.3809 147.678 55.4033 147.678 57.6549H149.678C149.678 55.1601 149.231 52.8612 148.32 50.773L146.487 51.5729ZM147.678 57.6549C147.678 58.3885 147.628 59.1027 147.529 59.798L149.509 60.0809C149.622 59.2885 149.678 58.4797 149.678 57.6549H147.678ZM147.524 59.8399C147.454 60.5437 147.387 61.0067 147.33 61.2633L149.283 61.6972C149.367 61.3162 149.443 60.752 149.514 60.039L147.524 59.8399ZM148.306 60.4802H133.164V62.4802H148.306V60.4802ZM132.198 61.7379C132.67 63.5079 133.557 64.8853 134.947 65.6922L135.951 63.9626C135.145 63.4944 134.509 62.6404 134.131 61.2226L132.198 61.7379ZM134.968 65.7042C136.239 66.4011 137.703 66.7306 139.327 66.7306V64.7306C137.976 64.7306 136.855 64.458 135.93 63.9506L134.968 65.7042ZM139.327 66.7306C141.24 66.7306 143.213 66.1329 145.232 65.0109L144.261 63.2626C142.455 64.2657 140.816 64.7306 139.327 64.7306V66.7306ZM143.87 64.618L146.845 70.0373L148.599 69.0748L145.623 63.6555L143.87 64.618ZM147.149 68.7368C145.825 69.6633 144.329 70.38 142.653 70.8828L143.228 72.7984C145.094 72.2386 146.785 71.4323 148.295 70.3752L147.149 68.7368ZM142.653 70.8828C140.954 71.3926 139.422 71.6376 138.052 71.6376V73.6376C139.658 73.6376 141.385 73.3512 143.228 72.7984L142.653 70.8828ZM133.058 56.5296H140.921V54.5296H133.058V56.5296ZM141.921 55.5296C141.921 54.3209 141.605 53.226 140.938 52.2919L139.311 53.4544C139.706 54.0079 139.921 54.684 139.921 55.5296H141.921ZM140.968 52.3363C140.209 51.1433 138.851 50.7043 137.308 50.7043V52.7043C138.529 52.7043 139.048 53.0445 139.281 53.41L140.968 52.3363ZM137.308 50.7043C136.097 50.7043 134.996 51.0777 134.041 51.8162L135.263 53.3988C135.866 52.933 136.536 52.7043 137.308 52.7043V50.7043ZM134.041 51.8162C133.011 52.6121 132.393 53.8367 132.08 55.3236L134.037 55.7357C134.29 54.5307 134.735 53.8072 135.263 53.3988L134.041 51.8162Z" fill="#689159"/>
<defs>
<clipPath id="clip0_117_1081">
<rect width="77" height="77" fill="white" transform="translate(4)"/>
</clipPath>
</defs>
</svg>
