<svg width="1211" height="20834" viewBox="0 0 1211 20834" fill="none" xmlns="http://www.w3.org/2000/svg">
<line x1="715.1" y1="4.37114e-09" x2="715.099" y2="20834" stroke="#3E5902" stroke-width="0.2"/>
<line x1="220.1" y1="4.37114e-09" x2="220.099" y2="20834" stroke="#3E5902" stroke-width="0.2"/>
<line x1="660.1" y1="4.37114e-09" x2="660.099" y2="20834" stroke="#3E5902" stroke-width="0.2"/>
<line x1="165.1" y1="4.37114e-09" x2="165.099" y2="20834" stroke="#3E5902" stroke-width="0.2"/>
<line x1="605.1" y1="4.37114e-09" x2="605.099" y2="20834" stroke="#3E5902" stroke-width="0.2"/>
<line x1="110.1" y1="4.37114e-09" x2="110.099" y2="20834" stroke="#3E5902" stroke-width="0.2"/>
<line x1="550.1" y1="4.37114e-09" x2="550.099" y2="20834" stroke="#3E5902" stroke-width="0.2"/>
<line x1="55.1" y1="4.37114e-09" x2="55.0991" y2="20834" stroke="#3E5902" stroke-width="0.2"/>
<line x1="495.1" y1="4.37114e-09" x2="495.099" y2="20834" stroke="#3E5902" stroke-width="0.2"/>
<line x1="0.1" y1="4.37114e-09" x2="0.0990893" y2="20834" stroke="#3E5902" stroke-width="0.2"/>
<line x1="770.1" y1="4.37114e-09" x2="770.099" y2="20834" stroke="#3E5902" stroke-width="0.2"/>
<line x1="275.1" y1="4.37114e-09" x2="275.099" y2="20834" stroke="#3E5902" stroke-width="0.2"/>
<line x1="825.1" y1="4.37114e-09" x2="825.099" y2="20834" stroke="#3E5902" stroke-width="0.2"/>
<line x1="330.1" y1="4.37114e-09" x2="330.099" y2="20834" stroke="#3E5902" stroke-width="0.2"/>
<line x1="880.1" y1="4.37114e-09" x2="880.099" y2="20834" stroke="#3E5902" stroke-width="0.2"/>
<line x1="385.1" y1="4.37114e-09" x2="385.099" y2="20834" stroke="#3E5902" stroke-width="0.2"/>
<line x1="935.1" y1="4.37114e-09" x2="935.099" y2="20834" stroke="#3E5902" stroke-width="0.2"/>
<line x1="440.1" y1="4.37114e-09" x2="440.099" y2="20834" stroke="#3E5902" stroke-width="0.2"/>
<line x1="990.1" y1="4.37114e-09" x2="990.099" y2="20834" stroke="#3E5902" stroke-width="0.2"/>
<line x1="1045.1" y1="4.37114e-09" x2="1045.1" y2="20834" stroke="#3E5902" stroke-width="0.2"/>
<line x1="1100.1" y1="4.37114e-09" x2="1100.1" y2="20834" stroke="#3E5902" stroke-width="0.2"/>
<line x1="1155.1" y1="4.37114e-09" x2="1155.1" y2="20834" stroke="#3E5902" stroke-width="0.2"/>
<line x1="1210.1" y1="4.37114e-09" x2="1210.1" y2="20834" stroke="#3E5902" stroke-width="0.2"/>
</svg>
